Interstate-Compressed_Thin.ufo
<glyph name="exclam" format="1">
  <advance width="137"/>
  <unicode hex="0021"/>
  <outline>
    <contour>
      <point x="60" y="135" type="line"/>
      <point x="60" y="700" type="line"/>
      <point x="78" y="700" type="line"/>
      <point x="78" y="135" type="line"/>
    </contour>
    <contour>
      <point x="69" y="-4" type="curve" smooth="yes"/>
      <point x="56" y="-4"/>
      <point x="46" y="6"/>
      <point x="46" y="19" type="curve" smooth="yes"/>
      <point x="46" y="32"/>
      <point x="56" y="43"/>
      <point x="69" y="43" type="curve" smooth="yes"/>
      <point x="82" y="43"/>
      <point x="92" y="32"/>
      <point x="92" y="19" type="curve" smooth="yes"/>
      <point x="92" y="6"/>
      <point x="82" y="-4"/>
    </contour>
  </outline>
</glyph>
<glyph name="quotedbl" format="1">
  <advance width="223"/>
  <unicode hex="0022"/>
  <outline>
    <contour>
      <point x="151" y="469" type="line"/>
      <point x="151" y="700" type="line"/>
      <point x="169" y="700" type="line"/>
      <point x="169" y="469" type="line"/>
    </contour>
    <contour>
      <point x="54" y="469" type="line"/>
      <point x="54" y="700" type="line"/>
      <point x="72" y="700" type="line"/>
      <point x="72" y="469" type="line"/>
    </contour>
  </outline>
</glyph>
<glyph name="numbersign" format="1">
  <advance width="351"/>
  <unicode hex="0023"/>
  <outline>
    <contour>
      <point x="331" y="199" type="line"/>
      <point x="266" y="199" type="line"/>
      <point x="266" y="0" type="line"/>
      <point x="248" y="0" type="line"/>
      <point x="248" y="199" type="line"/>
      <point x="103" y="199" type="line"/>
      <point x="103" y="0" type="line"/>
      <point x="84" y="0" type="line"/>
      <point x="84" y="199" type="line"/>
      <point x="19" y="199" type="line"/>
      <point x="19" y="215" type="line"/>
      <point x="84" y="215" type="line"/>
      <point x="84" y="484" type="line"/>
      <point x="19" y="484" type="line"/>
      <point x="19" y="500" type="line"/>
      <point x="84" y="500" type="line"/>
      <point x="84" y="700" type="line"/>
      <point x="103" y="700" type="line"/>
      <point x="103" y="500" type="line"/>
      <point x="248" y="500" type="line"/>
      <point x="248" y="700" type="line"/>
      <point x="266" y="700" type="line"/>
      <point x="266" y="500" type="line"/>
      <point x="331" y="500" type="line"/>
      <point x="331" y="484" type="line"/>
      <point x="266" y="484" type="line"/>
      <point x="266" y="215" type="line"/>
      <point x="331" y="215" type="line"/>
    </contour>
    <contour>
      <point x="248" y="215" type="line"/>
      <point x="248" y="484" type="line"/>
      <point x="103" y="484" type="line"/>
      <point x="103" y="215" type="line"/>
    </contour>
  </outline>
</glyph>
<glyph name="dollar" format="1">
  <advance width="279"/>
  <unicode hex="0024"/>
  <outline>
    <contour>
      <point x="244" y="145" type="curve" smooth="yes"/>
      <point x="244" y="53"/>
      <point x="209" y="-2"/>
      <point x="145" y="-7" type="curve"/>
      <point x="145" y="-66" type="line"/>
      <point x="126" y="-66" type="line"/>
      <point x="126" y="-6" type="line"/>
      <point x="70" y="-1"/>
      <point x="39" y="47"/>
      <point x="30" y="147" type="curve"/>
      <point x="49" y="151" type="line"/>
      <point x="58" y="51"/>
      <point x="88" y="11"/>
      <point x="138" y="11" type="curve" smooth="yes"/>
      <point x="195" y="11"/>
      <point x="226" y="60"/>
      <point x="226" y="142" type="curve" smooth="yes"/>
      <point x="226" y="218"/>
      <point x="212" y="277"/>
      <point x="131" y="369" type="curve" smooth="yes"/>
      <point x="55" y="455"/>
      <point x="35" y="504"/>
      <point x="35" y="571" type="curve" smooth="yes"/>
      <point x="35" y="651"/>
      <point x="71" y="703"/>
      <point x="125" y="706" type="curve"/>
      <point x="125" y="766" type="line"/>
      <point x="144" y="766" type="line"/>
      <point x="144" y="706" type="line"/>
      <point x="194" y="703"/>
      <point x="225" y="665"/>
      <point x="242" y="574" type="curve"/>
      <point x="223" y="569" type="line"/>
      <point x="206" y="659"/>
      <point x="178" y="689"/>
      <point x="135" y="689" type="curve" smooth="yes"/>
      <point x="85" y="689"/>
      <point x="54" y="645"/>
      <point x="54" y="572" type="curve" smooth="yes"/>
      <point x="54" y="510"/>
      <point x="69" y="467"/>
      <point x="143" y="383" type="curve" smooth="yes"/>
      <point x="226" y="289"/>
      <point x="244" y="227"/>
    </contour>
  </outline>
</glyph>
<glyph name="ampersand" format="1">
  <advance width="314"/>
  <unicode hex="0026"/>
  <outline>
    <contour>
      <point x="122" y="-8" type="curve" smooth="yes"/>
      <point x="69" y="-8"/>
      <point x="34" y="49"/>
      <point x="34" y="146" type="curve" smooth="yes"/>
      <point x="34" y="239"/>
      <point x="67" y="321"/>
      <point x="117" y="392" type="curve"/>
      <point x="100" y="439" type="line" smooth="yes"/>
      <point x="74" y="512"/>
      <point x="66" y="558"/>
      <point x="66" y="599" type="curve" smooth="yes"/>
      <point x="66" y="665"/>
      <point x="99" y="708"/>
      <point x="151" y="708" type="curve" smooth="yes"/>
      <point x="203" y="708"/>
      <point x="232" y="660"/>
      <point x="246" y="581" type="curve"/>
      <point x="228" y="575" type="line"/>
      <point x="215" y="648"/>
      <point x="192" y="690"/>
      <point x="150" y="690" type="curve" smooth="yes"/>
      <point x="110" y="690"/>
      <point x="85" y="655"/>
      <point x="85" y="601" type="curve" smooth="yes"/>
      <point x="85" y="559"/>
      <point x="92" y="515"/>
      <point x="117" y="447" type="curve" smooth="yes"/>
      <point x="225" y="152" type="line"/>
      <point x="242" y="206"/>
      <point x="256" y="282"/>
      <point x="269" y="378" type="curve"/>
      <point x="286" y="375" type="line"/>
      <point x="270" y="266"/>
      <point x="253" y="186"/>
      <point x="234" y="128" type="curve"/>
      <point x="281" y="0" type="line"/>
      <point x="262" y="0" type="line"/>
      <point x="225" y="102" type="line"/>
      <point x="196" y="19"/>
      <point x="163" y="-8"/>
    </contour>
    <contour>
      <point x="124" y="10" type="curve" smooth="yes"/>
      <point x="160" y="10"/>
      <point x="187" y="37"/>
      <point x="216" y="125" type="curve"/>
      <point x="125" y="372" type="line"/>
      <point x="82" y="308"/>
      <point x="53" y="233"/>
      <point x="53" y="148" type="curve" smooth="yes"/>
      <point x="53" y="61"/>
      <point x="82" y="10"/>
    </contour>
  </outline>
</glyph>
<glyph name="quotesingle" format="1">
  <advance width="126"/>
  <unicode hex="0027"/>
  <outline>
    <contour>
      <point x="54" y="469" type="line"/>
      <point x="54" y="700" type="line"/>
      <point x="72" y="700" type="line"/>
      <point x="72" y="469" type="line"/>
    </contour>
  </outline>
</glyph>
<glyph name="parenleft" format="1">
  <advance width="181"/>
  <unicode hex="0028"/>
  <outline>
    <contour>
      <point x="154" y="-103" type="curve"/>
      <point x="141" y="-111" type="line"/>
      <point x="73" y="10"/>
      <point x="39" y="145"/>
      <point x="39" y="302" type="curve" smooth="yes"/>
      <point x="39" y="460"/>
      <point x="73" y="594"/>
      <point x="141" y="715" type="curve"/>
      <point x="154" y="707" type="line"/>
      <point x="91" y="591"/>
      <point x="58" y="457"/>
      <point x="58" y="303" type="curve" smooth="yes"/>
      <point x="58" y="148"/>
      <point x="91" y="13"/>
    </contour>
  </outline>
</glyph>
<glyph name="parenright" format="1">
  <advance width="181"/>
  <unicode hex="0029"/>
  <outline>
    <contour>
      <point x="143" y="302" type="curve" smooth="yes"/>
      <point x="143" y="144"/>
      <point x="109" y="10"/>
      <point x="40" y="-111" type="curve"/>
      <point x="27" y="-103" type="line"/>
      <point x="90" y="13"/>
      <point x="124" y="148"/>
      <point x="124" y="302" type="curve" smooth="yes"/>
      <point x="124" y="457"/>
      <point x="90" y="591"/>
      <point x="27" y="707" type="curve"/>
      <point x="40" y="715" type="line"/>
      <point x="109" y="594"/>
      <point x="143" y="460"/>
    </contour>
  </outline>
</glyph>
<glyph name="asterisk" format="1">
  <advance width="276"/>
  <unicode hex="002A"/>
  <outline>
    <contour>
      <point x="250" y="520" type="line"/>
      <point x="242" y="506" type="line"/>
      <point x="143" y="567" type="line"/>
      <point x="146" y="450" type="line"/>
      <point x="130" y="450" type="line"/>
      <point x="133" y="567" type="line"/>
      <point x="35" y="506" type="line"/>
      <point x="26" y="520" type="line"/>
      <point x="127" y="575" type="line"/>
      <point x="26" y="630" type="line"/>
      <point x="35" y="645" type="line"/>
      <point x="133" y="583" type="line"/>
      <point x="130" y="700" type="line"/>
      <point x="146" y="700" type="line"/>
      <point x="143" y="583" type="line"/>
      <point x="242" y="645" type="line"/>
      <point x="250" y="630" type="line"/>
      <point x="149" y="575" type="line"/>
    </contour>
  </outline>
</glyph>
<glyph name="plus" format="1">
  <advance width="274"/>
  <unicode hex="002B"/>
  <outline>
    <contour>
      <point x="253" y="336" type="line"/>
      <point x="146" y="336" type="line"/>
      <point x="146" y="212" type="line"/>
      <point x="128" y="212" type="line"/>
      <point x="128" y="336" type="line"/>
      <point x="21" y="336" type="line"/>
      <point x="21" y="353" type="line"/>
      <point x="128" y="353" type="line"/>
      <point x="128" y="476" type="line"/>
      <point x="146" y="476" type="line"/>
      <point x="146" y="353" type="line"/>
      <point x="253" y="353" type="line"/>
    </contour>
  </outline>
</glyph>
<glyph name="comma" format="1">
  <advance width="84"/>
  <unicode hex="002C"/>
  <outline>
    <contour>
      <point x="56" y="63" type="line"/>
      <point x="31" y="-74" type="line"/>
      <point x="19" y="-74" type="line"/>
      <point x="35" y="63" type="line"/>
    </contour>
  </outline>
</glyph>
<glyph name="hyphen" format="1">
  <advance width="202"/>
  <unicode hex="002D"/>
  <unicode hex="2010"/>
  <unicode hex="2011"/>
  <outline>
    <contour>
      <point x="177" y="355" type="line"/>
      <point x="25" y="355" type="line"/>
      <point x="25" y="373" type="line"/>
      <point x="177" y="373" type="line"/>
    </contour>
  </outline>
</glyph>
<glyph name="period" format="1">
  <advance width="84"/>
  <unicode hex="002E"/>
  <outline>
    <contour>
      <point x="42" y="-4" type="curve" smooth="yes"/>
      <point x="29" y="-4"/>
      <point x="19" y="6"/>
      <point x="19" y="19" type="curve" smooth="yes"/>
      <point x="19" y="32"/>
      <point x="29" y="43"/>
      <point x="42" y="43" type="curve" smooth="yes"/>
      <point x="55" y="43"/>
      <point x="65" y="32"/>
      <point x="65" y="19" type="curve" smooth="yes"/>
      <point x="65" y="6"/>
      <point x="55" y="-4"/>
    </contour>
  </outline>
</glyph>
<glyph name="slash" format="1">
  <advance width="179"/>
  <unicode hex="002F"/>
  <outline>
    <contour>
      <point x="183" y="790" type="line"/>
      <point x="13" y="-90" type="line"/>
      <point x="-4" y="-90" type="line"/>
      <point x="165" y="790" type="line"/>
    </contour>
  </outline>
</glyph>
<glyph name="zero" format="1">
  <advance width="321"/>
  <unicode hex="0030"/>
  <outline>
    <contour>
      <point x="278" y="350" type="curve" smooth="yes"/>
      <point x="278" y="86"/>
      <point x="235" y="-8"/>
      <point x="160" y="-8" type="curve" smooth="yes"/>
      <point x="86" y="-8"/>
      <point x="42" y="86"/>
      <point x="42" y="350" type="curve" smooth="yes"/>
      <point x="42" y="614"/>
      <point x="86" y="708"/>
      <point x="160" y="708" type="curve" smooth="yes"/>
      <point x="235" y="708"/>
      <point x="278" y="614"/>
    </contour>
    <contour>
      <point x="260" y="350" type="curve" smooth="yes"/>
      <point x="260" y="604"/>
      <point x="219" y="690"/>
      <point x="160" y="690" type="curve" smooth="yes"/>
      <point x="101" y="690"/>
      <point x="61" y="604"/>
      <point x="61" y="350" type="curve" smooth="yes"/>
      <point x="61" y="96"/>
      <point x="101" y="10"/>
      <point x="161" y="10" type="curve" smooth="yes"/>
      <point x="220" y="10"/>
      <point x="260" y="96"/>
    </contour>
  </outline>
</glyph>
<glyph name="one" format="1">
  <advance width="176"/>
  <unicode hex="0031"/>
  <outline>
    <contour>
      <point x="102" y="0" type="line"/>
      <point x="84" y="0" type="line"/>
      <point x="84" y="668" type="line"/>
      <point x="73" y="645"/>
      <point x="40" y="629"/>
      <point x="7" y="625" type="curve"/>
      <point x="7" y="640" type="line"/>
      <point x="46" y="644"/>
      <point x="73" y="666"/>
      <point x="87" y="702" type="curve"/>
      <point x="102" y="702" type="line"/>
    </contour>
  </outline>
</glyph>
<glyph name="two" format="1">
  <advance width="283"/>
  <unicode hex="0032"/>
  <outline>
    <contour>
      <point x="248" y="0" type="line"/>
      <point x="29" y="0" type="line"/>
      <point x="29" y="133"/>
      <point x="59" y="222"/>
      <point x="143" y="332" type="curve" smooth="yes"/>
      <point x="200" y="407"/>
      <point x="228" y="461"/>
      <point x="228" y="547" type="curve" smooth="yes"/>
      <point x="228" y="630"/>
      <point x="202" y="690"/>
      <point x="144" y="690" type="curve" smooth="yes"/>
      <point x="93" y="690"/>
      <point x="68" y="637"/>
      <point x="54" y="545" type="curve"/>
      <point x="36" y="549" type="line"/>
      <point x="50" y="647"/>
      <point x="80" y="708"/>
      <point x="146" y="708" type="curve" smooth="yes"/>
      <point x="215" y="708"/>
      <point x="247" y="638"/>
      <point x="247" y="548" type="curve" smooth="yes"/>
      <point x="247" y="457"/>
      <point x="216" y="399"/>
      <point x="156" y="319" type="curve" smooth="yes"/>
      <point x="76" y="213"/>
      <point x="48" y="128"/>
      <point x="48" y="17" type="curve"/>
      <point x="248" y="17" type="line"/>
    </contour>
  </outline>
</glyph>
<glyph name="three" format="1">
  <advance width="273"/>
  <unicode hex="0033"/>
  <outline>
    <contour>
      <point x="239" y="187" type="curve" smooth="yes"/>
      <point x="239" y="69"/>
      <point x="195" y="-8"/>
      <point x="129" y="-8" type="curve" smooth="yes"/>
      <point x="72" y="-8"/>
      <point x="36" y="39"/>
      <point x="20" y="144" type="curve"/>
      <point x="39" y="148" type="line"/>
      <point x="53" y="52"/>
      <point x="83" y="10"/>
      <point x="131" y="10" type="curve" smooth="yes"/>
      <point x="186" y="10"/>
      <point x="220" y="86"/>
      <point x="220" y="187" type="curve" smooth="yes"/>
      <point x="220" y="309"/>
      <point x="183" y="369"/>
      <point x="117" y="369" type="curve" smooth="yes"/>
      <point x="103" y="369" type="line"/>
      <point x="103" y="387" type="line"/>
      <point x="115" y="387" type="line" smooth="yes"/>
      <point x="188" y="387"/>
      <point x="216" y="454"/>
      <point x="216" y="547" type="curve" smooth="yes"/>
      <point x="216" y="630"/>
      <point x="182" y="690"/>
      <point x="135" y="690" type="curve" smooth="yes"/>
      <point x="85" y="690"/>
      <point x="59" y="640"/>
      <point x="43" y="557" type="curve"/>
      <point x="25" y="562" type="line"/>
      <point x="41" y="650"/>
      <point x="72" y="708"/>
      <point x="136" y="708" type="curve" smooth="yes"/>
      <point x="195" y="708"/>
      <point x="235" y="638"/>
      <point x="235" y="547" type="curve" smooth="yes"/>
      <point x="235" y="460"/>
      <point x="209" y="395"/>
      <point x="150" y="379" type="curve"/>
      <point x="205" y="364"/>
      <point x="239" y="309"/>
    </contour>
  </outline>
</glyph>
<glyph name="four" format="1">
  <advance width="289"/>
  <unicode hex="0034"/>
  <outline>
    <contour>
      <point x="272" y="205" type="line"/>
      <point x="222" y="205" type="line"/>
      <point x="222" y="0" type="line"/>
      <point x="205" y="0" type="line"/>
      <point x="205" y="205" type="line"/>
      <point x="11" y="205" type="line"/>
      <point x="11" y="219" type="line"/>
      <point x="206" y="702" type="line"/>
      <point x="222" y="702" type="line"/>
      <point x="222" y="222" type="line"/>
      <point x="272" y="222" type="line"/>
    </contour>
    <contour>
      <point x="205" y="222" type="line"/>
      <point x="205" y="657" type="line"/>
      <point x="31" y="222" type="line"/>
    </contour>
  </outline>
</glyph>
<glyph name="five" format="1">
  <advance width="273"/>
  <unicode hex="0035"/>
  <outline>
    <contour>
      <point x="248" y="218" type="curve" smooth="yes"/>
      <point x="248" y="69"/>
      <point x="202" y="-8"/>
      <point x="136" y="-8" type="curve" smooth="yes"/>
      <point x="74" y="-8"/>
      <point x="42" y="52"/>
      <point x="30" y="148" type="curve"/>
      <point x="48" y="152" type="line"/>
      <point x="60" y="64"/>
      <point x="87" y="10"/>
      <point x="137" y="10" type="curve" smooth="yes"/>
      <point x="189" y="10"/>
      <point x="229" y="83"/>
      <point x="229" y="217" type="curve" smooth="yes"/>
      <point x="229" y="341"/>
      <point x="191" y="412"/>
      <point x="139" y="412" type="curve" smooth="yes"/>
      <point x="100" y="412"/>
      <point x="76" y="378"/>
      <point x="54" y="334" type="curve"/>
      <point x="38" y="337" type="line"/>
      <point x="53" y="700" type="line"/>
      <point x="235" y="700" type="line"/>
      <point x="235" y="683" type="line"/>
      <point x="70" y="683" type="line"/>
      <point x="56" y="365" type="line"/>
      <point x="70" y="391"/>
      <point x="97" y="430"/>
      <point x="139" y="430" type="curve" smooth="yes"/>
      <point x="202" y="430"/>
      <point x="248" y="359"/>
    </contour>
  </outline>
</glyph>
<glyph name="six" format="1">
  <advance width="295"/>
  <unicode hex="0036"/>
  <outline>
    <contour>
      <point x="266" y="210" type="curve" smooth="yes"/>
      <point x="266" y="85"/>
      <point x="225" y="-8"/>
      <point x="155" y="-8" type="curve" smooth="yes"/>
      <point x="81" y="-8"/>
      <point x="38" y="79"/>
      <point x="38" y="231" type="curve" smooth="yes"/>
      <point x="38" y="483"/>
      <point x="105" y="617"/>
      <point x="196" y="706" type="curve"/>
      <point x="206" y="691" type="line"/>
      <point x="128" y="615"/>
      <point x="72" y="502"/>
      <point x="58" y="318" type="curve"/>
      <point x="72" y="389"/>
      <point x="114" y="426"/>
      <point x="157" y="426" type="curve" smooth="yes"/>
      <point x="229" y="426"/>
      <point x="266" y="344"/>
    </contour>
    <contour>
      <point x="248" y="209" type="curve" smooth="yes"/>
      <point x="248" y="334"/>
      <point x="216" y="408"/>
      <point x="155" y="408" type="curve" smooth="yes"/>
      <point x="101" y="408"/>
      <point x="57" y="334"/>
      <point x="57" y="225" type="curve" smooth="yes"/>
      <point x="57" y="90"/>
      <point x="94" y="10"/>
      <point x="155" y="10" type="curve" smooth="yes"/>
      <point x="213" y="10"/>
      <point x="248" y="94"/>
    </contour>
  </outline>
</glyph>
<glyph name="seven" format="1">
  <advance width="258"/>
  <unicode hex="0037"/>
  <outline>
    <contour>
      <point x="235" y="684" type="line"/>
      <point x="135" y="512"/>
      <point x="114" y="324"/>
      <point x="114" y="0" type="curve"/>
      <point x="95" y="0" type="line"/>
      <point x="95" y="318"/>
      <point x="119" y="517"/>
      <point x="214" y="683" type="curve"/>
      <point x="11" y="683" type="line"/>
      <point x="11" y="700" type="line"/>
      <point x="235" y="700" type="line"/>
    </contour>
  </outline>
</glyph>
<glyph name="eight" format="1">
  <advance width="293"/>
  <unicode hex="0038"/>
  <outline>
    <contour>
      <point x="255" y="195" type="curve" smooth="yes"/>
      <point x="255" y="70"/>
      <point x="209" y="-8"/>
      <point x="146" y="-8" type="curve" smooth="yes"/>
      <point x="84" y="-8"/>
      <point x="38" y="71"/>
      <point x="38" y="194" type="curve" smooth="yes"/>
      <point x="38" y="300"/>
      <point x="72" y="369"/>
      <point x="121" y="385" type="curve"/>
      <point x="75" y="398"/>
      <point x="44" y="462"/>
      <point x="44" y="542" type="curve" smooth="yes"/>
      <point x="44" y="634"/>
      <point x="85" y="708"/>
      <point x="146" y="708" type="curve" smooth="yes"/>
      <point x="209" y="708"/>
      <point x="249" y="633"/>
      <point x="249" y="542" type="curve" smooth="yes"/>
      <point x="249" y="462"/>
      <point x="218" y="399"/>
      <point x="172" y="385" type="curve"/>
      <point x="221" y="370"/>
      <point x="255" y="300"/>
    </contour>
    <contour>
      <point x="230" y="541" type="curve" smooth="yes"/>
      <point x="230" y="624"/>
      <point x="197" y="690"/>
      <point x="146" y="690" type="curve" smooth="yes"/>
      <point x="96" y="690"/>
      <point x="63" y="624"/>
      <point x="63" y="542" type="curve" smooth="yes"/>
      <point x="63" y="460"/>
      <point x="96" y="394"/>
      <point x="146" y="394" type="curve" smooth="yes"/>
      <point x="197" y="394"/>
      <point x="230" y="460"/>
    </contour>
    <contour>
      <point x="236" y="194" type="curve" smooth="yes"/>
      <point x="236" y="302"/>
      <point x="199" y="376"/>
      <point x="146" y="376" type="curve" smooth="yes"/>
      <point x="93" y="376"/>
      <point x="57" y="302"/>
      <point x="57" y="195" type="curve" smooth="yes"/>
      <point x="57" y="85"/>
      <point x="93" y="10"/>
      <point x="147" y="10" type="curve" smooth="yes"/>
      <point x="200" y="10"/>
      <point x="236" y="84"/>
    </contour>
  </outline>
</glyph>
<glyph name="nine" format="1">
  <advance width="295"/>
  <unicode hex="0039"/>
  <outline>
    <contour>
      <point x="257" y="469" type="curve" smooth="yes"/>
      <point x="257" y="217"/>
      <point x="190" y="83"/>
      <point x="99" y="-6" type="curve"/>
      <point x="89" y="9" type="line"/>
      <point x="167" y="85"/>
      <point x="223" y="198"/>
      <point x="237" y="382" type="curve"/>
      <point x="223" y="311"/>
      <point x="181" y="274"/>
      <point x="138" y="274" type="curve" smooth="yes"/>
      <point x="66" y="274"/>
      <point x="29" y="356"/>
      <point x="29" y="490" type="curve" smooth="yes"/>
      <point x="29" y="615"/>
      <point x="70" y="708"/>
      <point x="140" y="708" type="curve" smooth="yes"/>
      <point x="214" y="708"/>
      <point x="257" y="621"/>
    </contour>
    <contour>
      <point x="238" y="475" type="curve" smooth="yes"/>
      <point x="238" y="610"/>
      <point x="201" y="690"/>
      <point x="140" y="690" type="curve" smooth="yes"/>
      <point x="82" y="690"/>
      <point x="47" y="606"/>
      <point x="47" y="491" type="curve" smooth="yes"/>
      <point x="47" y="366"/>
      <point x="79" y="292"/>
      <point x="140" y="292" type="curve" smooth="yes"/>
      <point x="194" y="292"/>
      <point x="238" y="366"/>
    </contour>
  </outline>
</glyph>
<glyph name="colon" format="1">
  <advance width="84"/>
  <unicode hex="003A"/>
  <outline>
    <contour>
      <point x="42" y="478" type="curve" smooth="yes"/>
      <point x="29" y="478"/>
      <point x="19" y="488"/>
      <point x="19" y="501" type="curve" smooth="yes"/>
      <point x="19" y="514"/>
      <point x="29" y="525"/>
      <point x="42" y="525" type="curve" smooth="yes"/>
      <point x="55" y="525"/>
      <point x="65" y="514"/>
      <point x="65" y="501" type="curve" smooth="yes"/>
      <point x="65" y="488"/>
      <point x="55" y="478"/>
    </contour>
    <contour>
      <point x="42" y="-4" type="curve" smooth="yes"/>
      <point x="29" y="-4"/>
      <point x="19" y="6"/>
      <point x="19" y="19" type="curve" smooth="yes"/>
      <point x="19" y="32"/>
      <point x="29" y="43"/>
      <point x="42" y="43" type="curve" smooth="yes"/>
      <point x="55" y="43"/>
      <point x="65" y="32"/>
      <point x="65" y="19" type="curve" smooth="yes"/>
      <point x="65" y="6"/>
      <point x="55" y="-4"/>
    </contour>
  </outline>
</glyph>
<glyph name="semicolon" format="1">
  <advance width="84"/>
  <unicode hex="003B"/>
  <outline>
    <contour>
      <point x="42" y="478" type="curve" smooth="yes"/>
      <point x="29" y="478"/>
      <point x="19" y="488"/>
      <point x="19" y="501" type="curve" smooth="yes"/>
      <point x="19" y="514"/>
      <point x="29" y="525"/>
      <point x="42" y="525" type="curve" smooth="yes"/>
      <point x="55" y="525"/>
      <point x="65" y="514"/>
      <point x="65" y="501" type="curve" smooth="yes"/>
      <point x="65" y="488"/>
      <point x="55" y="478"/>
    </contour>
    <contour>
      <point x="50" y="63" type="line"/>
      <point x="26" y="-74" type="line"/>
      <point x="14" y="-74" type="line"/>
      <point x="30" y="63" type="line"/>
    </contour>
  </outline>
</glyph>
<glyph name="less" format="1">
  <advance width="217"/>
  <unicode hex="003C"/>
  <outline>
    <contour>
      <point x="179" y="176" type="line"/>
      <point x="20" y="338" type="line"/>
      <point x="20" y="350" type="line"/>
      <point x="179" y="512" type="line"/>
      <point x="179" y="489" type="line"/>
      <point x="36" y="344" type="line"/>
      <point x="179" y="199" type="line"/>
    </contour>
  </outline>
</glyph>
<glyph name="equal" format="1">
  <advance width="324"/>
  <unicode hex="003D"/>
  <outline>
    <contour>
      <point x="287" y="408" type="line"/>
      <point x="37" y="408" type="line"/>
      <point x="37" y="425" type="line"/>
      <point x="287" y="425" type="line"/>
    </contour>
    <contour>
      <point x="287" y="263" type="line"/>
      <point x="37" y="263" type="line"/>
      <point x="37" y="280" type="line"/>
      <point x="287" y="280" type="line"/>
    </contour>
  </outline>
</glyph>
<glyph name="greater" format="1">
  <advance width="217"/>
  <unicode hex="003E"/>
  <outline>
    <contour>
      <point x="198" y="338" type="line"/>
      <point x="38" y="176" type="line"/>
      <point x="38" y="199" type="line"/>
      <point x="182" y="344" type="line"/>
      <point x="38" y="489" type="line"/>
      <point x="38" y="512" type="line"/>
      <point x="198" y="350" type="line"/>
    </contour>
  </outline>
</glyph>
<glyph name="question" format="1">
  <advance width="256"/>
  <unicode hex="003F"/>
  <outline>
    <contour>
      <point x="225" y="567" type="curve" smooth="yes"/>
      <point x="225" y="501"/>
      <point x="201" y="433"/>
      <point x="169" y="376" type="curve" smooth="yes"/>
      <point x="137" y="319"/>
      <point x="127" y="261"/>
      <point x="127" y="139" type="curve"/>
      <point x="110" y="139" type="line"/>
      <point x="110" y="266"/>
      <point x="121" y="324"/>
      <point x="156" y="387" type="curve" smooth="yes"/>
      <point x="186" y="441"/>
      <point x="206" y="505"/>
      <point x="206" y="567" type="curve" smooth="yes"/>
      <point x="206" y="642"/>
      <point x="177" y="690"/>
      <point x="132" y="690" type="curve" smooth="yes"/>
      <point x="88" y="690"/>
      <point x="55" y="645"/>
      <point x="41" y="543" type="curve"/>
      <point x="23" y="547" type="line"/>
      <point x="37" y="655"/>
      <point x="75" y="708"/>
      <point x="133" y="708" type="curve" smooth="yes"/>
      <point x="189" y="708"/>
      <point x="225" y="652"/>
    </contour>
    <contour>
      <point x="118" y="-4" type="curve" smooth="yes"/>
      <point x="105" y="-4"/>
      <point x="95" y="6"/>
      <point x="95" y="19" type="curve" smooth="yes"/>
      <point x="95" y="32"/>
      <point x="105" y="43"/>
      <point x="118" y="43" type="curve" smooth="yes"/>
      <point x="131" y="43"/>
      <point x="141" y="32"/>
      <point x="141" y="19" type="curve" smooth="yes"/>
      <point x="141" y="6"/>
      <point x="131" y="-4"/>
    </contour>
  </outline>
</glyph>
<glyph name="at" format="1">
  <advance width="457"/>
  <unicode hex="0040"/>
  <outline>
    <contour>
      <point x="417" y="360" type="curve" smooth="yes"/>
      <point x="417" y="200"/>
      <point x="383" y="165"/>
      <point x="343" y="165" type="curve" smooth="yes"/>
      <point x="318" y="165"/>
      <point x="300" y="176"/>
      <point x="290" y="199" type="curve"/>
      <point x="266" y="174"/>
      <point x="246" y="164"/>
      <point x="220" y="164" type="curve" smooth="yes"/>
      <point x="175" y="164"/>
      <point x="147" y="198"/>
      <point x="147" y="284" type="curve" smooth="yes"/>
      <point x="147" y="371"/>
      <point x="177" y="403"/>
      <point x="222" y="403" type="curve" smooth="yes"/>
      <point x="246" y="403"/>
      <point x="263" y="395"/>
      <point x="283" y="380" type="curve"/>
      <point x="283" y="471" type="line" smooth="yes"/>
      <point x="283" y="516"/>
      <point x="270" y="535"/>
      <point x="231" y="535" type="curve" smooth="yes"/>
      <point x="209" y="535"/>
      <point x="188" y="524"/>
      <point x="168" y="505" type="curve"/>
      <point x="160" y="514" type="line"/>
      <point x="180" y="536"/>
      <point x="205" y="550"/>
      <point x="233" y="550" type="curve" smooth="yes"/>
      <point x="278" y="550"/>
      <point x="297" y="527"/>
      <point x="297" y="471" type="curve" smooth="yes"/>
      <point x="297" y="248" type="line" smooth="yes"/>
      <point x="297" y="202"/>
      <point x="313" y="178"/>
      <point x="343" y="178" type="curve" smooth="yes"/>
      <point x="376" y="178"/>
      <point x="403" y="213"/>
      <point x="403" y="360" type="curve" smooth="yes"/>
      <point x="403" y="563"/>
      <point x="348" y="694"/>
      <point x="229" y="694" type="curve" smooth="yes"/>
      <point x="109" y="694"/>
      <point x="54" y="566"/>
      <point x="54" y="350" type="curve" smooth="yes"/>
      <point x="54" y="134"/>
      <point x="108" y="5"/>
      <point x="230" y="5" type="curve" smooth="yes"/>
      <point x="265" y="5"/>
      <point x="296" y="19"/>
      <point x="323" y="39" type="curve"/>
      <point x="329" y="29" type="line"/>
      <point x="301" y="6"/>
      <point x="266" y="-9"/>
      <point x="229" y="-9" type="curve" smooth="yes"/>
      <point x="102" y="-9"/>
      <point x="40" y="125"/>
      <point x="40" y="350" type="curve" smooth="yes"/>
      <point x="40" y="574"/>
      <point x="102" y="708"/>
      <point x="229" y="708" type="curve" smooth="yes"/>
      <point x="357" y="708"/>
      <point x="417" y="566"/>
    </contour>
    <contour>
      <point x="286" y="211" type="curve"/>
      <point x="284" y="219"/>
      <point x="283" y="235"/>
      <point x="283" y="245" type="curve" smooth="yes"/>
      <point x="283" y="365" type="line"/>
      <point x="262" y="381"/>
      <point x="247" y="389"/>
      <point x="222" y="389" type="curve" smooth="yes"/>
      <point x="185" y="389"/>
      <point x="161" y="359"/>
      <point x="161" y="284" type="curve" smooth="yes"/>
      <point x="161" y="209"/>
      <point x="185" y="178"/>
      <point x="222" y="178" type="curve" smooth="yes"/>
      <point x="244" y="178"/>
      <point x="264" y="189"/>
    </contour>
  </outline>
</glyph>
<glyph name="A" format="1">
  <advance width="335"/>
  <unicode hex="0041"/>
  <outline>
    <contour>
      <point x="298" y="0" type="line"/>
      <point x="278" y="0" type="line"/>
      <point x="244" y="208" type="line"/>
      <point x="91" y="208" type="line"/>
      <point x="56" y="0" type="line"/>
      <point x="37" y="0" type="line"/>
      <point x="157" y="702" type="line"/>
      <point x="177" y="702" type="line"/>
    </contour>
    <contour>
      <point x="241" y="225" type="line"/>
      <point x="167" y="667" type="line"/>
      <point x="94" y="225" type="line"/>
    </contour>
  </outline>
</glyph>
<glyph name="B" format="1">
  <advance width="306"/>
  <unicode hex="0042"/>
  <outline>
    <contour>
      <point x="273" y="189" type="curve" smooth="yes"/>
      <point x="273" y="56"/>
      <point x="214" y="0"/>
      <point x="123" y="0" type="curve" smooth="yes"/>
      <point x="54" y="0" type="line"/>
      <point x="54" y="700" type="line"/>
      <point x="120" y="700" type="line" smooth="yes"/>
      <point x="212" y="700"/>
      <point x="258" y="645"/>
      <point x="258" y="538" type="curve" smooth="yes"/>
      <point x="258" y="444"/>
      <point x="220" y="390"/>
      <point x="156" y="375" type="curve"/>
      <point x="227" y="361"/>
      <point x="273" y="306"/>
    </contour>
    <contour>
      <point x="239" y="537" type="curve" smooth="yes"/>
      <point x="239" y="636"/>
      <point x="197" y="682"/>
      <point x="119" y="682" type="curve" smooth="yes"/>
      <point x="73" y="682" type="line"/>
      <point x="73" y="384" type="line"/>
      <point x="115" y="384" type="line" smooth="yes"/>
      <point x="197" y="384"/>
      <point x="239" y="441"/>
    </contour>
    <contour>
      <point x="254" y="189" type="curve" smooth="yes"/>
      <point x="254" y="310"/>
      <point x="202" y="366"/>
      <point x="117" y="366" type="curve" smooth="yes"/>
      <point x="73" y="366" type="line"/>
      <point x="73" y="18" type="line"/>
      <point x="124" y="18" type="line" smooth="yes"/>
      <point x="206" y="18"/>
      <point x="254" y="70"/>
    </contour>
  </outline>
</glyph>
<glyph name="C" format="1">
  <advance width="301"/>
  <unicode hex="0043"/>
  <outline>
    <contour>
      <point x="266" y="161" type="line"/>
      <point x="247" y="39"/>
      <point x="215" y="-8"/>
      <point x="160" y="-8" type="curve" smooth="yes"/>
      <point x="87" y="-8"/>
      <point x="43" y="86"/>
      <point x="43" y="350" type="curve" smooth="yes"/>
      <point x="43" y="613"/>
      <point x="87" y="708"/>
      <point x="161" y="708" type="curve" smooth="yes"/>
      <point x="214" y="708"/>
      <point x="247" y="662"/>
      <point x="266" y="537" type="curve"/>
      <point x="247" y="533" type="line"/>
      <point x="228" y="653"/>
      <point x="201" y="690"/>
      <point x="160" y="690" type="curve" smooth="yes"/>
      <point x="101" y="690"/>
      <point x="62" y="603"/>
      <point x="62" y="350" type="curve" smooth="yes"/>
      <point x="62" y="95"/>
      <point x="102" y="10"/>
      <point x="161" y="10" type="curve" smooth="yes"/>
      <point x="203" y="10"/>
      <point x="230" y="49"/>
      <point x="248" y="166" type="curve"/>
    </contour>
  </outline>
</glyph>
<glyph name="D" format="1">
  <advance width="322"/>
  <unicode hex="0044"/>
  <outline>
    <contour>
      <point x="283" y="351" type="curve" smooth="yes"/>
      <point x="283" y="92"/>
      <point x="236" y="0"/>
      <point x="123" y="0" type="curve" smooth="yes"/>
      <point x="54" y="0" type="line"/>
      <point x="54" y="700" type="line"/>
      <point x="125" y="700" type="line" smooth="yes"/>
      <point x="240" y="700"/>
      <point x="283" y="605"/>
    </contour>
    <contour>
      <point x="264" y="350" type="curve" smooth="yes"/>
      <point x="264" y="596"/>
      <point x="223" y="682"/>
      <point x="125" y="682" type="curve" smooth="yes"/>
      <point x="73" y="682" type="line"/>
      <point x="73" y="18" type="line"/>
      <point x="124" y="18" type="line" smooth="yes"/>
      <point x="222" y="18"/>
      <point x="264" y="101"/>
    </contour>
  </outline>
</glyph>
<glyph name="E" format="1">
  <advance width="249"/>
  <unicode hex="0045"/>
  <outline>
    <contour>
      <point x="242" y="0" type="line"/>
      <point x="54" y="0" type="line"/>
      <point x="54" y="700" type="line"/>
      <point x="232" y="700" type="line"/>
      <point x="232" y="683" type="line"/>
      <point x="73" y="683" type="line"/>
      <point x="73" y="383" type="line"/>
      <point x="184" y="383" type="line"/>
      <point x="184" y="365" type="line"/>
      <point x="73" y="365" type="line"/>
      <point x="73" y="17" type="line"/>
      <point x="242" y="17" type="line"/>
    </contour>
  </outline>
</glyph>
<glyph name="F" format="1">
  <advance width="256"/>
  <unicode hex="0046"/>
  <outline>
    <contour>
      <point x="238" y="683" type="line"/>
      <point x="73" y="683" type="line"/>
      <point x="73" y="377" type="line"/>
      <point x="191" y="377" type="line"/>
      <point x="191" y="359" type="line"/>
      <point x="73" y="359" type="line"/>
      <point x="73" y="0" type="line"/>
      <point x="54" y="0" type="line"/>
      <point x="54" y="700" type="line"/>
      <point x="238" y="700" type="line"/>
    </contour>
  </outline>
</glyph>
<glyph name="G" format="1">
  <advance width="314"/>
  <unicode hex="0047"/>
  <outline>
    <contour>
      <point x="274" y="249" type="line" smooth="yes"/>
      <point x="274" y="79"/>
      <point x="235" y="-8"/>
      <point x="163" y="-8" type="curve" smooth="yes"/>
      <point x="86" y="-8"/>
      <point x="43" y="86"/>
      <point x="43" y="350" type="curve" smooth="yes"/>
      <point x="43" y="613"/>
      <point x="87" y="708"/>
      <point x="161" y="708" type="curve" smooth="yes"/>
      <point x="214" y="708"/>
      <point x="247" y="662"/>
      <point x="266" y="537" type="curve"/>
      <point x="247" y="533" type="line"/>
      <point x="228" y="653"/>
      <point x="201" y="690"/>
      <point x="161" y="690" type="curve" smooth="yes"/>
      <point x="101" y="690"/>
      <point x="62" y="604"/>
      <point x="62" y="350" type="curve" smooth="yes"/>
      <point x="62" y="95"/>
      <point x="101" y="10"/>
      <point x="164" y="10" type="curve" smooth="yes"/>
      <point x="219" y="10"/>
      <point x="255" y="83"/>
      <point x="255" y="248" type="curve" smooth="yes"/>
      <point x="255" y="323" type="line"/>
      <point x="170" y="323" type="line"/>
      <point x="170" y="341" type="line"/>
      <point x="274" y="341" type="line"/>
    </contour>
  </outline>
</glyph>
<glyph name="H" format="1">
  <advance width="341"/>
  <unicode hex="0048"/>
  <outline>
    <contour>
      <point x="287" y="0" type="line"/>
      <point x="268" y="0" type="line"/>
      <point x="268" y="366" type="line"/>
      <point x="73" y="366" type="line"/>
      <point x="73" y="0" type="line"/>
      <point x="54" y="0" type="line"/>
      <point x="54" y="700" type="line"/>
      <point x="73" y="700" type="line"/>
      <point x="73" y="383" type="line"/>
      <point x="268" y="383" type="line"/>
      <point x="268" y="700" type="line"/>
      <point x="287" y="700" type="line"/>
    </contour>
  </outline>
</glyph>
<glyph name="I" format="1">
  <advance width="137"/>
  <unicode hex="0049"/>
  <outline>
    <contour>
      <point x="78" y="0" type="line"/>
      <point x="59" y="0" type="line"/>
      <point x="59" y="700" type="line"/>
      <point x="78" y="700" type="line"/>
    </contour>
  </outline>
</glyph>
<glyph name="J" format="1">
  <advance width="288"/>
  <unicode hex="004A"/>
  <outline>
    <contour>
      <point x="235" y="177" type="line" smooth="yes"/>
      <point x="235" y="50"/>
      <point x="199" y="-8"/>
      <point x="131" y="-8" type="curve" smooth="yes"/>
      <point x="63" y="-8"/>
      <point x="29" y="47"/>
      <point x="21" y="167" type="curve"/>
      <point x="39" y="170" type="line"/>
      <point x="46" y="58"/>
      <point x="78" y="10"/>
      <point x="131" y="10" type="curve" smooth="yes"/>
      <point x="188" y="10"/>
      <point x="216" y="62"/>
      <point x="216" y="178" type="curve" smooth="yes"/>
      <point x="216" y="700" type="line"/>
      <point x="235" y="700" type="line"/>
    </contour>
  </outline>
</glyph>
<glyph name="K" format="1">
  <advance width="293"/>
  <unicode hex="004B"/>
  <outline>
    <contour>
      <point x="274" y="0" type="line"/>
      <point x="254" y="0" type="line"/>
      <point x="119" y="408" type="line"/>
      <point x="73" y="312" type="line"/>
      <point x="73" y="0" type="line"/>
      <point x="54" y="0" type="line"/>
      <point x="54" y="700" type="line"/>
      <point x="73" y="700" type="line"/>
      <point x="73" y="348" type="line"/>
      <point x="244" y="700" type="line"/>
      <point x="264" y="700" type="line"/>
      <point x="131" y="430" type="line"/>
    </contour>
  </outline>
</glyph>
<glyph name="L" format="1">
  <advance width="232"/>
  <unicode hex="004C"/>
  <outline>
    <contour>
      <point x="221" y="0" type="line"/>
      <point x="54" y="0" type="line"/>
      <point x="54" y="700" type="line"/>
      <point x="73" y="700" type="line"/>
      <point x="73" y="17" type="line"/>
      <point x="221" y="17" type="line"/>
    </contour>
  </outline>
</glyph>
<glyph name="M" format="1">
  <advance width="409"/>
  <unicode hex="004D"/>
  <outline>
    <contour>
      <point x="54" y="0" type="line"/>
      <point x="54" y="700" type="line"/>
      <point x="75" y="700" type="line"/>
      <point x="205" y="66" type="line"/>
      <point x="334" y="700" type="line"/>
      <point x="355" y="700" type="line"/>
      <point x="355" y="0" type="line"/>
      <point x="337" y="0" type="line"/>
      <point x="337" y="631" type="line"/>
      <point x="206" y="-5" type="line"/>
      <point x="203" y="-5" type="line"/>
      <point x="72" y="631" type="line"/>
      <point x="72" y="0" type="line"/>
    </contour>
  </outline>
</glyph>
<glyph name="N" format="1">
  <advance width="339"/>
  <unicode hex="004E"/>
  <outline>
    <contour>
      <point x="285" y="0" type="line"/>
      <point x="270" y="0" type="line"/>
      <point x="72" y="642" type="line"/>
      <point x="72" y="0" type="line"/>
      <point x="54" y="0" type="line"/>
      <point x="54" y="700" type="line"/>
      <point x="72" y="700" type="line"/>
      <point x="267" y="67" type="line"/>
      <point x="267" y="700" type="line"/>
      <point x="285" y="700" type="line"/>
    </contour>
  </outline>
</glyph>
<glyph name="O" format="1">
  <advance width="329"/>
  <unicode hex="004F"/>
  <outline>
    <contour>
      <point x="286" y="350" type="curve" smooth="yes"/>
      <point x="286" y="86"/>
      <point x="242" y="-8"/>
      <point x="164" y="-8" type="curve" smooth="yes"/>
      <point x="87" y="-8"/>
      <point x="43" y="86"/>
      <point x="43" y="350" type="curve" smooth="yes"/>
      <point x="43" y="614"/>
      <point x="87" y="708"/>
      <point x="164" y="708" type="curve" smooth="yes"/>
      <point x="242" y="708"/>
      <point x="286" y="614"/>
    </contour>
    <contour>
      <point x="267" y="350" type="curve" smooth="yes"/>
      <point x="267" y="604"/>
      <point x="227" y="690"/>
      <point x="164" y="690" type="curve" smooth="yes"/>
      <point x="101" y="690"/>
      <point x="62" y="604"/>
      <point x="62" y="350" type="curve" smooth="yes"/>
      <point x="62" y="96"/>
      <point x="102" y="10"/>
      <point x="165" y="10" type="curve" smooth="yes"/>
      <point x="227" y="10"/>
      <point x="267" y="96"/>
    </contour>
  </outline>
</glyph>
<glyph name="P" format="1">
  <advance width="292"/>
  <unicode hex="0050"/>
  <outline>
    <contour>
      <point x="265" y="522" type="curve" smooth="yes"/>
      <point x="265" y="384"/>
      <point x="200" y="341"/>
      <point x="107" y="341" type="curve" smooth="yes"/>
      <point x="73" y="341" type="line"/>
      <point x="73" y="0" type="line"/>
      <point x="54" y="0" type="line"/>
      <point x="54" y="700" type="line"/>
      <point x="109" y="700" type="line" smooth="yes"/>
      <point x="203" y="700"/>
      <point x="265" y="658"/>
    </contour>
    <contour>
      <point x="246" y="521" type="curve" smooth="yes"/>
      <point x="246" y="643"/>
      <point x="193" y="682"/>
      <point x="108" y="682" type="curve" smooth="yes"/>
      <point x="73" y="682" type="line"/>
      <point x="73" y="359" type="line"/>
      <point x="108" y="359" type="line" smooth="yes"/>
      <point x="193" y="359"/>
      <point x="246" y="399"/>
    </contour>
  </outline>
</glyph>
<glyph name="Q" format="1">
  <advance width="329"/>
  <unicode hex="0051"/>
  <outline>
    <contour>
      <point x="286" y="4" type="line"/>
      <point x="274" y="-8" type="line"/>
      <point x="236" y="37" type="line"/>
      <point x="217" y="5"/>
      <point x="193" y="-8"/>
      <point x="164" y="-8" type="curve" smooth="yes"/>
      <point x="87" y="-8"/>
      <point x="43" y="86"/>
      <point x="43" y="350" type="curve" smooth="yes"/>
      <point x="43" y="614"/>
      <point x="87" y="708"/>
      <point x="164" y="708" type="curve" smooth="yes"/>
      <point x="242" y="708"/>
      <point x="286" y="614"/>
      <point x="286" y="350" type="curve" smooth="yes"/>
      <point x="286" y="201"/>
      <point x="272" y="107"/>
      <point x="246" y="53" type="curve"/>
    </contour>
    <contour>
      <point x="267" y="350" type="curve" smooth="yes"/>
      <point x="267" y="604"/>
      <point x="227" y="690"/>
      <point x="164" y="690" type="curve" smooth="yes"/>
      <point x="101" y="690"/>
      <point x="62" y="604"/>
      <point x="62" y="350" type="curve" smooth="yes"/>
      <point x="62" y="96"/>
      <point x="102" y="10"/>
      <point x="165" y="10" type="curve" smooth="yes"/>
      <point x="188" y="10"/>
      <point x="209" y="22"/>
      <point x="225" y="50" type="curve"/>
      <point x="174" y="111" type="line"/>
      <point x="186" y="123" type="line"/>
      <point x="233" y="68" type="line"/>
      <point x="255" y="117"/>
      <point x="267" y="205"/>
    </contour>
  </outline>
</glyph>
<glyph name="R" format="1">
  <advance width="303"/>
  <unicode hex="0052"/>
  <outline>
    <contour>
      <point x="274" y="0" type="line"/>
      <point x="254" y="0" type="line"/>
      <point x="153" y="355" type="line"/>
      <point x="139" y="352"/>
      <point x="116" y="351"/>
      <point x="97" y="351" type="curve" smooth="yes"/>
      <point x="73" y="351" type="line"/>
      <point x="73" y="0" type="line"/>
      <point x="54" y="0" type="line"/>
      <point x="54" y="700" type="line"/>
      <point x="109" y="700" type="line" smooth="yes"/>
      <point x="203" y="700"/>
      <point x="265" y="658"/>
      <point x="265" y="530" type="curve" smooth="yes"/>
      <point x="265" y="432"/>
      <point x="229" y="382"/>
      <point x="171" y="362" type="curve"/>
    </contour>
    <contour>
      <point x="246" y="529" type="curve" smooth="yes"/>
      <point x="246" y="643"/>
      <point x="193" y="682"/>
      <point x="108" y="682" type="curve" smooth="yes"/>
      <point x="73" y="682" type="line"/>
      <point x="73" y="368" type="line"/>
      <point x="108" y="368" type="line" smooth="yes"/>
      <point x="193" y="368"/>
      <point x="246" y="413"/>
    </contour>
  </outline>
</glyph>
<glyph name="S" format="1">
  <advance width="289"/>
  <unicode hex="0053"/>
  <outline>
    <contour>
      <point x="249" y="145" type="curve" smooth="yes"/>
      <point x="249" y="50"/>
      <point x="211" y="-8"/>
      <point x="141" y="-8" type="curve" smooth="yes"/>
      <point x="79" y="-8"/>
      <point x="44" y="41"/>
      <point x="35" y="147" type="curve"/>
      <point x="54" y="151" type="line"/>
      <point x="63" y="51"/>
      <point x="92" y="10"/>
      <point x="142" y="10" type="curve" smooth="yes"/>
      <point x="199" y="10"/>
      <point x="231" y="60"/>
      <point x="231" y="142" type="curve" smooth="yes"/>
      <point x="231" y="218"/>
      <point x="216" y="276"/>
      <point x="135" y="368" type="curve" smooth="yes"/>
      <point x="59" y="454"/>
      <point x="40" y="504"/>
      <point x="40" y="571" type="curve" smooth="yes"/>
      <point x="40" y="656"/>
      <point x="79" y="708"/>
      <point x="140" y="708" type="curve" smooth="yes"/>
      <point x="197" y="708"/>
      <point x="229" y="669"/>
      <point x="247" y="574" type="curve"/>
      <point x="228" y="569" type="line"/>
      <point x="211" y="659"/>
      <point x="183" y="690"/>
      <point x="140" y="690" type="curve" smooth="yes"/>
      <point x="90" y="690"/>
      <point x="59" y="645"/>
      <point x="59" y="572" type="curve" smooth="yes"/>
      <point x="59" y="513"/>
      <point x="75" y="467"/>
      <point x="149" y="383" type="curve" smooth="yes"/>
      <point x="232" y="289"/>
      <point x="249" y="227"/>
    </contour>
  </outline>
</glyph>
<glyph name="T" format="1">
  <advance width="269"/>
  <unicode hex="0054"/>
  <outline>
    <contour>
      <point x="248" y="683" type="line"/>
      <point x="144" y="683" type="line"/>
      <point x="144" y="0" type="line"/>
      <point x="125" y="0" type="line"/>
      <point x="125" y="683" type="line"/>
      <point x="21" y="683" type="line"/>
      <point x="21" y="700" type="line"/>
      <point x="248" y="700" type="line"/>
    </contour>
  </outline>
</glyph>
<glyph name="U" format="1">
  <advance width="337"/>
  <unicode hex="0055"/>
  <outline>
    <contour>
      <point x="285" y="142" type="line" smooth="yes"/>
      <point x="285" y="46"/>
      <point x="243" y="-8"/>
      <point x="168" y="-8" type="curve" smooth="yes"/>
      <point x="93" y="-8"/>
      <point x="52" y="46"/>
      <point x="52" y="142" type="curve" smooth="yes"/>
      <point x="52" y="700" type="line"/>
      <point x="71" y="700" type="line"/>
      <point x="71" y="142" type="line" smooth="yes"/>
      <point x="71" y="57"/>
      <point x="105" y="10"/>
      <point x="169" y="10" type="curve" smooth="yes"/>
      <point x="232" y="10"/>
      <point x="266" y="57"/>
      <point x="266" y="142" type="curve" smooth="yes"/>
      <point x="266" y="700" type="line"/>
      <point x="285" y="700" type="line"/>
    </contour>
  </outline>
</glyph>
<glyph name="V" format="1">
  <advance width="325"/>
  <unicode hex="0056"/>
  <outline>
    <contour>
      <point x="288" y="700" type="line"/>
      <point x="172" y="-2" type="line"/>
      <point x="153" y="-2" type="line"/>
      <point x="37" y="700" type="line"/>
      <point x="55" y="700" type="line"/>
      <point x="163" y="42" type="line"/>
      <point x="270" y="700" type="line"/>
    </contour>
  </outline>
</glyph>
<glyph name="W" format="1">
  <advance width="437"/>
  <unicode hex="0057"/>
  <outline>
    <contour>
      <point x="402" y="700" type="line"/>
      <point x="320" y="-2" type="line"/>
      <point x="303" y="-2" type="line"/>
      <point x="219" y="632" type="line"/>
      <point x="135" y="-2" type="line"/>
      <point x="118" y="-2" type="line"/>
      <point x="36" y="700" type="line"/>
      <point x="54" y="700" type="line"/>
      <point x="127" y="66" type="line"/>
      <point x="211" y="700" type="line"/>
      <point x="227" y="700" type="line"/>
      <point x="311" y="66" type="line"/>
      <point x="384" y="700" type="line"/>
    </contour>
  </outline>
</glyph>
<glyph name="X" format="1">
  <advance width="291"/>
  <unicode hex="0058"/>
  <outline>
    <contour>
      <point x="263" y="0" type="line"/>
      <point x="244" y="0" type="line"/>
      <point x="145" y="339" type="line"/>
      <point x="47" y="0" type="line"/>
      <point x="28" y="0" type="line"/>
      <point x="136" y="363" type="line"/>
      <point x="36" y="700" type="line"/>
      <point x="56" y="700" type="line"/>
      <point x="146" y="388" type="line"/>
      <point x="236" y="700" type="line"/>
      <point x="255" y="700" type="line"/>
      <point x="155" y="363" type="line"/>
    </contour>
  </outline>
</glyph>
<glyph name="Y" format="1">
  <advance width="295"/>
  <unicode hex="0059"/>
  <outline>
    <contour>
      <point x="272" y="700" type="line"/>
      <point x="157" y="301" type="line"/>
      <point x="157" y="0" type="line"/>
      <point x="138" y="0" type="line"/>
      <point x="138" y="301" type="line"/>
      <point x="22" y="700" type="line"/>
      <point x="42" y="700" type="line"/>
      <point x="148" y="325" type="line"/>
      <point x="254" y="700" type="line"/>
    </contour>
  </outline>
</glyph>
<glyph name="Z" format="1">
  <advance width="269"/>
  <unicode hex="005A"/>
  <outline>
    <contour>
      <point x="27" y="0" type="line"/>
      <point x="27" y="17" type="line"/>
      <point x="220" y="683" type="line"/>
      <point x="42" y="683" type="line"/>
      <point x="42" y="700" type="line"/>
      <point x="239" y="700" type="line"/>
      <point x="239" y="683" type="line"/>
      <point x="46" y="17" type="line"/>
      <point x="239" y="17" type="line"/>
      <point x="239" y="0" type="line"/>
    </contour>
  </outline>
</glyph>
<glyph name="bracketleft" format="1">
  <advance width="182"/>
  <unicode hex="005B"/>
  <outline>
    <contour>
      <point x="161" y="-106" type="line"/>
      <point x="56" y="-106" type="line"/>
      <point x="56" y="700" type="line"/>
      <point x="161" y="700" type="line"/>
      <point x="161" y="683" type="line"/>
      <point x="74" y="683" type="line"/>
      <point x="74" y="-89" type="line"/>
      <point x="161" y="-89" type="line"/>
    </contour>
  </outline>
</glyph>
<glyph name="backslash" format="1">
  <advance width="179"/>
  <unicode hex="005C"/>
  <outline>
    <contour>
      <point x="183" y="-90" type="line"/>
      <point x="165" y="-90" type="line"/>
      <point x="-4" y="790" type="line"/>
      <point x="13" y="790" type="line"/>
    </contour>
  </outline>
</glyph>
<glyph name="bracketright" format="1">
  <advance width="182"/>
  <unicode hex="005D"/>
  <outline>
    <contour>
      <point x="126" y="-106" type="line"/>
      <point x="21" y="-106" type="line"/>
      <point x="21" y="-89" type="line"/>
      <point x="108" y="-89" type="line"/>
      <point x="108" y="683" type="line"/>
      <point x="21" y="683" type="line"/>
      <point x="21" y="700" type="line"/>
      <point x="126" y="700" type="line"/>
    </contour>
  </outline>
</glyph>
<glyph name="asciicircum" format="1">
  <advance width="269"/>
  <unicode hex="005E"/>
  <outline>
    <contour>
      <point x="239" y="382" type="line"/>
      <point x="220" y="382" type="line"/>
      <point x="134" y="674" type="line"/>
      <point x="48" y="382" type="line"/>
      <point x="30" y="382" type="line"/>
      <point x="126" y="700" type="line"/>
      <point x="143" y="700" type="line"/>
    </contour>
  </outline>
</glyph>
<glyph name="underscore" format="1">
  <advance width="235"/>
  <unicode hex="005F"/>
  <outline>
    <contour>
      <point x="243" y="-118" type="line"/>
      <point x="-8" y="-118" type="line"/>
      <point x="-8" y="-101" type="line"/>
      <point x="243" y="-101" type="line"/>
    </contour>
  </outline>
</glyph>
<glyph name="grave" format="1">
  <advance width="316"/>
  <unicode hex="0060"/>
  <outline>
    <contour>
      <point x="180" y="600" type="line"/>
      <point x="166" y="600" type="line"/>
      <point x="76" y="760" type="line"/>
      <point x="100" y="760" type="line"/>
    </contour>
  </outline>
</glyph>
<glyph name="a" format="1">
  <advance width="281"/>
  <unicode hex="0061"/>
  <outline>
    <contour>
      <point x="235" y="0" type="line"/>
      <point x="217" y="0" type="line"/>
      <point x="217" y="44" type="line"/>
      <point x="188" y="9"/>
      <point x="157" y="-7"/>
      <point x="126" y="-7" type="curve" smooth="yes"/>
      <point x="67" y="-7"/>
      <point x="29" y="40"/>
      <point x="29" y="160" type="curve" smooth="yes"/>
      <point x="29" y="282"/>
      <point x="70" y="327"/>
      <point x="131" y="327" type="curve" smooth="yes"/>
      <point x="165" y="327"/>
      <point x="190" y="315"/>
      <point x="217" y="293" type="curve"/>
      <point x="217" y="419" type="line" smooth="yes"/>
      <point x="217" y="484"/>
      <point x="200" y="515"/>
      <point x="149" y="515" type="curve" smooth="yes"/>
      <point x="117" y="515"/>
      <point x="88" y="501"/>
      <point x="60" y="471" type="curve"/>
      <point x="48" y="484" type="line"/>
      <point x="78" y="516"/>
      <point x="112" y="533"/>
      <point x="150" y="533" type="curve" smooth="yes"/>
      <point x="211" y="533"/>
      <point x="235" y="501"/>
      <point x="235" y="421" type="curve" smooth="yes"/>
    </contour>
    <contour>
      <point x="217" y="63" type="curve"/>
      <point x="217" y="275" type="line"/>
      <point x="189" y="297"/>
      <point x="166" y="310"/>
      <point x="132" y="310" type="curve" smooth="yes"/>
      <point x="80" y="310"/>
      <point x="48" y="268"/>
      <point x="48" y="161" type="curve" smooth="yes"/>
      <point x="48" y="55"/>
      <point x="79" y="10"/>
      <point x="129" y="10" type="curve" smooth="yes"/>
      <point x="158" y="10"/>
      <point x="190" y="27"/>
    </contour>
  </outline>
</glyph>
<glyph name="c" format="1">
  <advance width="269"/>
  <unicode hex="0063"/>
  <outline>
    <contour>
      <point x="245" y="115" type="line"/>
      <point x="228" y="36"/>
      <point x="196" y="-8"/>
      <point x="148" y="-8" type="curve" smooth="yes"/>
      <point x="72" y="-8"/>
      <point x="36" y="102"/>
      <point x="36" y="261" type="curve" smooth="yes"/>
      <point x="36" y="423"/>
      <point x="72" y="533"/>
      <point x="148" y="533" type="curve" smooth="yes"/>
      <point x="203" y="533"/>
      <point x="231" y="474"/>
      <point x="243" y="405" type="curve"/>
      <point x="227" y="399" type="line"/>
      <point x="215" y="462"/>
      <point x="193" y="515"/>
      <point x="147" y="515" type="curve" smooth="yes"/>
      <point x="85" y="515"/>
      <point x="55" y="415"/>
      <point x="55" y="262" type="curve" smooth="yes"/>
      <point x="55" y="115"/>
      <point x="84" y="10"/>
      <point x="148" y="10" type="curve" smooth="yes"/>
      <point x="188" y="10"/>
      <point x="213" y="49"/>
      <point x="230" y="122" type="curve"/>
    </contour>
  </outline>
</glyph>
<glyph name="d" format="1">
  <advance width="295"/>
  <unicode hex="0064"/>
  <outline>
    <contour>
      <point x="246" y="0" type="line"/>
      <point x="228" y="0" type="line"/>
      <point x="228" y="43" type="line"/>
      <point x="204" y="11"/>
      <point x="175" y="-8"/>
      <point x="140" y="-8" type="curve" smooth="yes"/>
      <point x="75" y="-8"/>
      <point x="36" y="63"/>
      <point x="36" y="262" type="curve" smooth="yes"/>
      <point x="36" y="463"/>
      <point x="76" y="533"/>
      <point x="141" y="533" type="curve" smooth="yes"/>
      <point x="176" y="533"/>
      <point x="204" y="514"/>
      <point x="228" y="483" type="curve"/>
      <point x="228" y="718" type="line"/>
      <point x="246" y="729" type="line"/>
    </contour>
    <contour>
      <point x="228" y="63" type="curve"/>
      <point x="228" y="462" type="line"/>
      <point x="203" y="496"/>
      <point x="175" y="516"/>
      <point x="142" y="516" type="curve" smooth="yes"/>
      <point x="89" y="516"/>
      <point x="55" y="448"/>
      <point x="55" y="262" type="curve" smooth="yes"/>
      <point x="55" y="71"/>
      <point x="90" y="9"/>
      <point x="143" y="9" type="curve" smooth="yes"/>
      <point x="176" y="9"/>
      <point x="204" y="29"/>
    </contour>
  </outline>
</glyph>
<glyph name="e" format="1">
  <advance width="288"/>
  <unicode hex="0065"/>
  <outline>
    <contour>
      <point x="252" y="259" type="curve"/>
      <point x="54" y="259" type="line"/>
      <point x="54" y="258"/>
      <point x="54" y="256"/>
      <point x="54" y="255" type="curve" smooth="yes"/>
      <point x="55" y="111"/>
      <point x="81" y="10"/>
      <point x="147" y="10" type="curve" smooth="yes"/>
      <point x="188" y="10"/>
      <point x="214" y="41"/>
      <point x="232" y="108" type="curve"/>
      <point x="246" y="100" type="line"/>
      <point x="228" y="28"/>
      <point x="196" y="-8"/>
      <point x="147" y="-8" type="curve" smooth="yes"/>
      <point x="68" y="-8"/>
      <point x="36" y="102"/>
      <point x="36" y="261" type="curve" smooth="yes"/>
      <point x="36" y="423"/>
      <point x="69" y="533"/>
      <point x="148" y="533" type="curve" smooth="yes"/>
      <point x="222" y="533"/>
      <point x="252" y="419"/>
      <point x="252" y="269" type="curve" smooth="yes"/>
      <point x="252" y="266"/>
      <point x="252" y="261"/>
    </contour>
    <contour>
      <point x="234" y="275" type="line"/>
      <point x="234" y="278"/>
      <point x="234" y="282"/>
      <point x="234" y="284" type="curve" smooth="yes"/>
      <point x="233" y="410"/>
      <point x="208" y="515"/>
      <point x="147" y="515" type="curve" smooth="yes"/>
      <point x="84" y="515"/>
      <point x="56" y="419"/>
      <point x="54" y="275" type="curve"/>
    </contour>
  </outline>
</glyph>
<glyph name="i" format="1">
  <advance width="128"/>
  <unicode hex="0069"/>
  <outline>
    <contour>
      <point x="64" y="656" type="curve" smooth="yes"/>
      <point x="51" y="656"/>
      <point x="41" y="666"/>
      <point x="41" y="679" type="curve" smooth="yes"/>
      <point x="41" y="692"/>
      <point x="51" y="703"/>
      <point x="64" y="703" type="curve" smooth="yes"/>
      <point x="77" y="703"/>
      <point x="87" y="692"/>
      <point x="87" y="679" type="curve" smooth="yes"/>
      <point x="87" y="666"/>
      <point x="77" y="656"/>
    </contour>
    <contour>
      <point x="73" y="0" type="line"/>
      <point x="55" y="0" type="line"/>
      <point x="55" y="525" type="line"/>
      <point x="73" y="525" type="line"/>
    </contour>
  </outline>
</glyph>
<glyph name="j" format="1">
  <advance width="128"/>
  <unicode hex="006A"/>
  <outline>
    <contour>
      <point x="64" y="656" type="curve" smooth="yes"/>
      <point x="51" y="656"/>
      <point x="41" y="666"/>
      <point x="41" y="679" type="curve" smooth="yes"/>
      <point x="41" y="692"/>
      <point x="51" y="703"/>
      <point x="64" y="703" type="curve" smooth="yes"/>
      <point x="77" y="703"/>
      <point x="87" y="692"/>
      <point x="87" y="679" type="curve" smooth="yes"/>
      <point x="87" y="666"/>
      <point x="77" y="656"/>
    </contour>
    <contour>
      <point x="73" y="-24" type="line" smooth="yes"/>
      <point x="73" y="-130"/>
      <point x="51" y="-159"/>
      <point x="1" y="-188" type="curve"/>
      <point x="-7" y="-173" type="line"/>
      <point x="37" y="-146"/>
      <point x="55" y="-120"/>
      <point x="55" y="-26" type="curve" smooth="yes"/>
      <point x="55" y="525" type="line"/>
      <point x="73" y="525" type="line"/>
    </contour>
  </outline>
</glyph>
<glyph name="k" format="1">
  <advance width="264"/>
  <unicode hex="006B"/>
  <outline>
    <contour>
      <point x="252" y="0" type="line"/>
      <point x="232" y="0" type="line"/>
      <point x="117" y="294" type="line"/>
      <point x="67" y="196" type="line"/>
      <point x="67" y="0" type="line"/>
      <point x="49" y="0" type="line"/>
      <point x="49" y="718" type="line"/>
      <point x="67" y="729" type="line"/>
      <point x="67" y="230" type="line"/>
      <point x="220" y="525" type="line"/>
      <point x="241" y="525" type="line"/>
      <point x="129" y="314" type="line"/>
    </contour>
  </outline>
</glyph>
<glyph name="l" format="1">
  <advance width="128"/>
  <unicode hex="006C"/>
  <outline>
    <contour>
      <point x="73" y="0" type="line"/>
      <point x="55" y="0" type="line"/>
      <point x="55" y="718" type="line"/>
      <point x="73" y="729" type="line"/>
    </contour>
  </outline>
</glyph>
<glyph name="m" format="1">
  <advance width="470"/>
  <unicode hex="006D"/>
  <outline>
    <contour>
      <point x="49" y="0" type="line"/>
      <point x="49" y="525" type="line"/>
      <point x="67" y="525" type="line"/>
      <point x="67" y="491" type="line"/>
      <point x="93" y="517"/>
      <point x="125" y="533"/>
      <point x="160" y="533" type="curve" smooth="yes"/>
      <point x="199" y="533"/>
      <point x="220" y="519"/>
      <point x="234" y="488" type="curve"/>
      <point x="264" y="516"/>
      <point x="300" y="533"/>
      <point x="336" y="533" type="curve" smooth="yes"/>
      <point x="399" y="533"/>
      <point x="424" y="491"/>
      <point x="424" y="405" type="curve" smooth="yes"/>
      <point x="424" y="0" type="line"/>
      <point x="406" y="0" type="line"/>
      <point x="406" y="404" type="line" smooth="yes"/>
      <point x="406" y="481"/>
      <point x="385" y="516"/>
      <point x="331" y="516" type="curve" smooth="yes"/>
      <point x="299" y="516"/>
      <point x="265" y="499"/>
      <point x="239" y="473" type="curve"/>
      <point x="243" y="460"/>
      <point x="246" y="429"/>
      <point x="246" y="408" type="curve" smooth="yes"/>
      <point x="246" y="0" type="line"/>
      <point x="228" y="0" type="line"/>
      <point x="228" y="409" type="line" smooth="yes"/>
      <point x="228" y="483"/>
      <point x="208" y="516"/>
      <point x="155" y="516" type="curve" smooth="yes"/>
      <point x="124" y="516"/>
      <point x="94" y="499"/>
      <point x="67" y="474" type="curve"/>
      <point x="67" y="0" type="line"/>
    </contour>
  </outline>
</glyph>
<glyph name="n" format="1">
  <advance width="300"/>
  <unicode hex="006E"/>
  <outline>
    <contour>
      <point x="254" y="0" type="line"/>
      <point x="236" y="0" type="line"/>
      <point x="236" y="400" type="line" smooth="yes"/>
      <point x="236" y="480"/>
      <point x="216" y="516"/>
      <point x="159" y="516" type="curve" smooth="yes"/>
      <point x="126" y="516"/>
      <point x="94" y="498"/>
      <point x="67" y="472" type="curve"/>
      <point x="67" y="0" type="line"/>
      <point x="49" y="0" type="line"/>
      <point x="49" y="525" type="line"/>
      <point x="67" y="525" type="line"/>
      <point x="67" y="489" type="line"/>
      <point x="94" y="516"/>
      <point x="128" y="533"/>
      <point x="164" y="533" type="curve" smooth="yes"/>
      <point x="230" y="533"/>
      <point x="254" y="490"/>
      <point x="254" y="401" type="curve" smooth="yes"/>
    </contour>
  </outline>
</glyph>
<glyph name="o" format="1">
  <advance width="305"/>
  <unicode hex="006F"/>
  <outline>
    <contour>
      <point x="268" y="263" type="curve" smooth="yes"/>
      <point x="268" y="101"/>
      <point x="234" y="-8"/>
      <point x="152" y="-8" type="curve" smooth="yes"/>
      <point x="71" y="-8"/>
      <point x="36" y="100"/>
      <point x="36" y="262" type="curve" smooth="yes"/>
      <point x="36" y="424"/>
      <point x="71" y="533"/>
      <point x="152" y="533" type="curve" smooth="yes"/>
      <point x="234" y="533"/>
      <point x="268" y="424"/>
    </contour>
    <contour>
      <point x="249" y="263" type="curve" smooth="yes"/>
      <point x="249" y="415"/>
      <point x="221" y="515"/>
      <point x="152" y="515" type="curve" smooth="yes"/>
      <point x="83" y="515"/>
      <point x="55" y="414"/>
      <point x="55" y="262" type="curve" smooth="yes"/>
      <point x="55" y="110"/>
      <point x="84" y="10"/>
      <point x="153" y="10" type="curve" smooth="yes"/>
      <point x="221" y="10"/>
      <point x="249" y="111"/>
    </contour>
  </outline>
</glyph>
<glyph name="p" format="1">
  <advance width="295"/>
  <unicode hex="0070"/>
  <outline>
    <contour>
      <point x="259" y="263" type="curve" smooth="yes"/>
      <point x="259" y="62"/>
      <point x="219" y="-8"/>
      <point x="154" y="-8" type="curve" smooth="yes"/>
      <point x="119" y="-8"/>
      <point x="92" y="10"/>
      <point x="67" y="42" type="curve"/>
      <point x="67" y="-176" type="line"/>
      <point x="49" y="-187" type="line"/>
      <point x="49" y="525" type="line"/>
      <point x="67" y="525" type="line"/>
      <point x="67" y="482" type="line"/>
      <point x="91" y="514"/>
      <point x="120" y="533"/>
      <point x="155" y="533" type="curve" smooth="yes"/>
      <point x="220" y="533"/>
      <point x="259" y="462"/>
    </contour>
    <contour>
      <point x="241" y="263" type="curve" smooth="yes"/>
      <point x="241" y="454"/>
      <point x="205" y="516"/>
      <point x="152" y="516" type="curve" smooth="yes"/>
      <point x="119" y="516"/>
      <point x="91" y="496"/>
      <point x="67" y="462" type="curve"/>
      <point x="67" y="63" type="line"/>
      <point x="92" y="29"/>
      <point x="120" y="9"/>
      <point x="153" y="9" type="curve" smooth="yes"/>
      <point x="206" y="9"/>
      <point x="241" y="77"/>
    </contour>
  </outline>
</glyph>
<glyph name="r" format="1">
  <advance width="189"/>
  <unicode hex="0072"/>
  <outline>
    <contour>
      <point x="192" y="524" type="curve"/>
      <point x="186" y="506" type="line"/>
      <point x="173" y="511"/>
      <point x="161" y="513"/>
      <point x="141" y="513" type="curve" smooth="yes"/>
      <point x="114" y="513"/>
      <point x="89" y="500"/>
      <point x="67" y="473" type="curve"/>
      <point x="67" y="0" type="line"/>
      <point x="49" y="0" type="line"/>
      <point x="49" y="525" type="line"/>
      <point x="67" y="525" type="line"/>
      <point x="67" y="491" type="line"/>
      <point x="91" y="518"/>
      <point x="116" y="531"/>
      <point x="146" y="531" type="curve" smooth="yes"/>
      <point x="167" y="531"/>
      <point x="179" y="528"/>
    </contour>
  </outline>
</glyph>
<glyph name="s" format="1">
  <advance width="260"/>
  <unicode hex="0073"/>
  <outline>
    <contour>
      <point x="230" y="105" type="curve" smooth="yes"/>
      <point x="230" y="38"/>
      <point x="189" y="-8"/>
      <point x="132" y="-8" type="curve" smooth="yes"/>
      <point x="83" y="-8"/>
      <point x="47" y="26"/>
      <point x="27" y="92" type="curve"/>
      <point x="43" y="102" type="line"/>
      <point x="63" y="38"/>
      <point x="92" y="10"/>
      <point x="132" y="10" type="curve" smooth="yes"/>
      <point x="178" y="10"/>
      <point x="212" y="48"/>
      <point x="212" y="104" type="curve" smooth="yes"/>
      <point x="212" y="171"/>
      <point x="188" y="206"/>
      <point x="124" y="266" type="curve" smooth="yes"/>
      <point x="64" y="324"/>
      <point x="36" y="360"/>
      <point x="36" y="426" type="curve" smooth="yes"/>
      <point x="36" y="488"/>
      <point x="73" y="533"/>
      <point x="126" y="533" type="curve" smooth="yes"/>
      <point x="175" y="533"/>
      <point x="206" y="500"/>
      <point x="227" y="444" type="curve"/>
      <point x="210" y="435" type="line"/>
      <point x="191" y="486"/>
      <point x="166" y="515"/>
      <point x="125" y="515" type="curve" smooth="yes"/>
      <point x="84" y="515"/>
      <point x="54" y="479"/>
      <point x="54" y="427" type="curve" smooth="yes"/>
      <point x="54" y="371"/>
      <point x="75" y="339"/>
      <point x="134" y="283" type="curve" smooth="yes"/>
      <point x="199" y="222"/>
      <point x="230" y="180"/>
    </contour>
  </outline>
</glyph>
<glyph name="t" format="1">
  <advance width="173"/>
  <unicode hex="0074"/>
  <outline>
    <contour>
      <point x="159" y="19" type="curve"/>
      <point x="156" y="0" type="line"/>
      <point x="145" y="-4"/>
      <point x="135" y="-6"/>
      <point x="120" y="-6" type="curve" smooth="yes"/>
      <point x="83" y="-6"/>
      <point x="60" y="19"/>
      <point x="60" y="74" type="curve" smooth="yes"/>
      <point x="60" y="509" type="line"/>
      <point x="12" y="509" type="line"/>
      <point x="12" y="525" type="line"/>
      <point x="60" y="525" type="line"/>
      <point x="60" y="698" type="line"/>
      <point x="77" y="707" type="line"/>
      <point x="77" y="525" type="line"/>
      <point x="152" y="525" type="line"/>
      <point x="152" y="509" type="line"/>
      <point x="77" y="509" type="line"/>
      <point x="77" y="75" type="line" smooth="yes"/>
      <point x="77" y="31"/>
      <point x="97" y="12"/>
      <point x="123" y="12" type="curve" smooth="yes"/>
      <point x="137" y="12"/>
      <point x="147" y="13"/>
    </contour>
  </outline>
</glyph>
<glyph name="u" format="1">
  <advance width="300"/>
  <unicode hex="0075"/>
  <outline>
    <contour>
      <point x="251" y="0" type="line"/>
      <point x="233" y="0" type="line"/>
      <point x="233" y="37" type="line"/>
      <point x="206" y="10"/>
      <point x="172" y="-8"/>
      <point x="136" y="-8" type="curve" smooth="yes"/>
      <point x="70" y="-8"/>
      <point x="46" y="35"/>
      <point x="46" y="124" type="curve" smooth="yes"/>
      <point x="46" y="525" type="line"/>
      <point x="64" y="525" type="line"/>
      <point x="64" y="125" type="line" smooth="yes"/>
      <point x="64" y="45"/>
      <point x="84" y="9"/>
      <point x="141" y="9" type="curve" smooth="yes"/>
      <point x="174" y="9"/>
      <point x="206" y="27"/>
      <point x="233" y="53" type="curve"/>
      <point x="233" y="525" type="line"/>
      <point x="251" y="525" type="line"/>
    </contour>
  </outline>
</glyph>
<glyph name="v" format="1">
  <advance width="272"/>
  <unicode hex="0076"/>
  <outline>
    <contour>
      <point x="247" y="525" type="line"/>
      <point x="145" y="-6" type="line"/>
      <point x="127" y="-6" type="line"/>
      <point x="25" y="525" type="line"/>
      <point x="44" y="525" type="line"/>
      <point x="44" y="525"/>
      <point x="135" y="34"/>
      <point x="136" y="24" type="curve"/>
      <point x="137" y="34"/>
      <point x="229" y="525"/>
      <point x="229" y="525" type="curve"/>
    </contour>
  </outline>
</glyph>
<glyph name="w" format="1">
  <advance width="397"/>
  <unicode hex="0077"/>
  <outline>
    <contour>
      <point x="367" y="525" type="line"/>
      <point x="295" y="-6" type="line"/>
      <point x="277" y="-6" type="line"/>
      <point x="277" y="-6"/>
      <point x="199" y="479"/>
      <point x="198" y="493" type="curve"/>
      <point x="197" y="479"/>
      <point x="120" y="-6"/>
      <point x="120" y="-6" type="curve"/>
      <point x="102" y="-6" type="line"/>
      <point x="31" y="525" type="line"/>
      <point x="49" y="525" type="line"/>
      <point x="49" y="525"/>
      <point x="111" y="47"/>
      <point x="111" y="36" type="curve"/>
      <point x="112" y="47"/>
      <point x="189" y="527"/>
      <point x="189" y="527" type="curve"/>
      <point x="208" y="527" type="line"/>
      <point x="208" y="527"/>
      <point x="285" y="47"/>
      <point x="286" y="36" type="curve"/>
      <point x="287" y="47"/>
      <point x="348" y="525"/>
      <point x="348" y="525" type="curve"/>
    </contour>
  </outline>
</glyph>
<glyph name="x" format="1">
  <advance width="255"/>
  <unicode hex="0078"/>
  <outline>
    <contour>
      <point x="232" y="0" type="line"/>
      <point x="213" y="0" type="line"/>
      <point x="213" y="0"/>
      <point x="129" y="252"/>
      <point x="128" y="258" type="curve"/>
      <point x="127" y="252"/>
      <point x="42" y="0"/>
      <point x="42" y="0" type="curve"/>
      <point x="23" y="0" type="line"/>
      <point x="118" y="278" type="line"/>
      <point x="34" y="525" type="line"/>
      <point x="53" y="525" type="line"/>
      <point x="53" y="525"/>
      <point x="127" y="304"/>
      <point x="128" y="299" type="curve"/>
      <point x="129" y="304"/>
      <point x="203" y="525"/>
      <point x="203" y="525" type="curve"/>
      <point x="222" y="525" type="line"/>
      <point x="137" y="278" type="line"/>
    </contour>
  </outline>
</glyph>
<glyph name="y" format="1">
  <advance width="272"/>
  <unicode hex="0079"/>
  <outline>
    <contour>
      <point x="247" y="525" type="line"/>
      <point x="111" y="-185" type="line"/>
      <point x="93" y="-185" type="line"/>
      <point x="128" y="-9" type="line"/>
      <point x="25" y="525" type="line"/>
      <point x="44" y="525" type="line"/>
      <point x="137" y="31" type="line"/>
      <point x="229" y="525" type="line"/>
    </contour>
  </outline>
</glyph>
<glyph name="z" format="1">
  <advance width="240"/>
  <unicode hex="007A"/>
  <outline>
    <contour>
      <point x="21" y="0" type="line"/>
      <point x="21" y="13" type="line"/>
      <point x="195" y="509" type="line"/>
      <point x="38" y="509" type="line"/>
      <point x="38" y="525" type="line"/>
      <point x="214" y="525" type="line"/>
      <point x="214" y="512" type="line"/>
      <point x="41" y="16" type="line"/>
      <point x="213" y="16" type="line"/>
      <point x="213" y="0" type="line"/>
    </contour>
  </outline>
</glyph>
<glyph name="braceleft" format="1">
  <advance width="222"/>
  <unicode hex="007B"/>
  <outline>
    <contour>
      <point x="211" y="-108" type="line"/>
      <point x="129" y="-101"/>
      <point x="90" y="-58"/>
      <point x="90" y="49" type="curve" smooth="yes"/>
      <point x="90" y="212" type="line" smooth="yes"/>
      <point x="90" y="260"/>
      <point x="69" y="289"/>
      <point x="28" y="289" type="curve" smooth="yes"/>
      <point x="10" y="289" type="line"/>
      <point x="10" y="306" type="line"/>
      <point x="28" y="306" type="line" smooth="yes"/>
      <point x="69" y="306"/>
      <point x="90" y="334"/>
      <point x="90" y="382" type="curve" smooth="yes"/>
      <point x="90" y="545" type="line" smooth="yes"/>
      <point x="90" y="653"/>
      <point x="129" y="695"/>
      <point x="211" y="703" type="curve"/>
      <point x="211" y="687" type="line"/>
      <point x="140" y="678"/>
      <point x="108" y="643"/>
      <point x="108" y="548" type="curve" smooth="yes"/>
      <point x="108" y="384" type="line" smooth="yes"/>
      <point x="108" y="336"/>
      <point x="90" y="306"/>
      <point x="54" y="297" type="curve"/>
      <point x="90" y="288"/>
      <point x="108" y="258"/>
      <point x="108" y="210" type="curve" smooth="yes"/>
      <point x="108" y="47" type="line" smooth="yes"/>
      <point x="108" y="-49"/>
      <point x="140" y="-84"/>
      <point x="211" y="-93" type="curve"/>
    </contour>
  </outline>
</glyph>
<glyph name="bar" format="1">
  <advance width="146"/>
  <unicode hex="007C"/>
  <outline>
    <contour>
      <point x="82" y="-185" type="line"/>
      <point x="64" y="-185" type="line"/>
      <point x="64" y="800" type="line"/>
      <point x="82" y="800" type="line"/>
    </contour>
  </outline>
</glyph>
<glyph name="braceright" format="1">
  <advance width="222"/>
  <unicode hex="007D"/>
  <outline>
    <contour>
      <point x="212" y="289" type="line"/>
      <point x="194" y="289" type="line" smooth="yes"/>
      <point x="153" y="289"/>
      <point x="132" y="260"/>
      <point x="132" y="212" type="curve" smooth="yes"/>
      <point x="132" y="49" type="line" smooth="yes"/>
      <point x="132" y="-58"/>
      <point x="94" y="-101"/>
      <point x="12" y="-108" type="curve"/>
      <point x="12" y="-93" type="line"/>
      <point x="82" y="-84"/>
      <point x="115" y="-49"/>
      <point x="115" y="47" type="curve" smooth="yes"/>
      <point x="115" y="210" type="line" smooth="yes"/>
      <point x="115" y="258"/>
      <point x="132" y="288"/>
      <point x="169" y="297" type="curve"/>
      <point x="132" y="306"/>
      <point x="115" y="336"/>
      <point x="115" y="384" type="curve" smooth="yes"/>
      <point x="115" y="548" type="line" smooth="yes"/>
      <point x="115" y="643"/>
      <point x="82" y="678"/>
      <point x="12" y="687" type="curve"/>
      <point x="12" y="703" type="line"/>
      <point x="94" y="695"/>
      <point x="132" y="653"/>
      <point x="132" y="545" type="curve" smooth="yes"/>
      <point x="132" y="382" type="line" smooth="yes"/>
      <point x="132" y="334"/>
      <point x="153" y="306"/>
      <point x="194" y="306" type="curve" smooth="yes"/>
      <point x="212" y="306" type="line"/>
    </contour>
  </outline>
</glyph>
<glyph name="asciitilde" format="1">
  <advance width="252"/>
  <unicode hex="007E"/>
  <outline>
    <contour>
      <point x="229" y="427" type="line"/>
      <point x="222" y="365"/>
      <point x="200" y="303"/>
      <point x="171" y="303" type="curve" smooth="yes"/>
      <point x="148" y="303"/>
      <point x="137" y="330"/>
      <point x="118" y="369" type="curve" smooth="yes"/>
      <point x="106" y="395"/>
      <point x="97" y="421"/>
      <point x="81" y="421" type="curve" smooth="yes"/>
      <point x="60" y="421"/>
      <point x="44" y="370"/>
      <point x="37" y="312" type="curve"/>
      <point x="22" y="315" type="line"/>
      <point x="29" y="378"/>
      <point x="51" y="439"/>
      <point x="81" y="439" type="curve" smooth="yes"/>
      <point x="102" y="439"/>
      <point x="113" y="415"/>
      <point x="130" y="380" type="curve" smooth="yes"/>
      <point x="144" y="350"/>
      <point x="153" y="321"/>
      <point x="170" y="321" type="curve" smooth="yes"/>
      <point x="190" y="321"/>
      <point x="207" y="372"/>
      <point x="215" y="430" type="curve"/>
    </contour>
  </outline>
</glyph>
<glyph name="cent" format="1">
  <advance width="269"/>
  <unicode hex="00A2"/>
  <outline>
    <contour>
      <point x="245" y="207" type="line"/>
      <point x="229" y="132"/>
      <point x="200" y="89"/>
      <point x="156" y="85" type="curve"/>
      <point x="156" y="-16" type="line"/>
      <point x="139" y="-16" type="line"/>
      <point x="139" y="85" type="line"/>
      <point x="68" y="93"/>
      <point x="36" y="200"/>
      <point x="36" y="354" type="curve" smooth="yes"/>
      <point x="36" y="509"/>
      <point x="69" y="617"/>
      <point x="139" y="624" type="curve"/>
      <point x="139" y="725" type="line"/>
      <point x="156" y="725" type="line"/>
      <point x="156" y="624" type="line"/>
      <point x="206" y="619"/>
      <point x="232" y="564"/>
      <point x="243" y="498" type="curve"/>
      <point x="227" y="491" type="line"/>
      <point x="215" y="554"/>
      <point x="193" y="607"/>
      <point x="147" y="607" type="curve" smooth="yes"/>
      <point x="85" y="607"/>
      <point x="55" y="507"/>
      <point x="55" y="354" type="curve" smooth="yes"/>
      <point x="55" y="207"/>
      <point x="84" y="102"/>
      <point x="148" y="102" type="curve" smooth="yes"/>
      <point x="188" y="102"/>
      <point x="213" y="141"/>
      <point x="230" y="215" type="curve"/>
    </contour>
  </outline>
</glyph>
<glyph name="sterling" format="1">
  <advance width="282"/>
  <unicode hex="00A3"/>
  <outline>
    <contour>
      <point x="36" y="0" type="line"/>
      <point x="36" y="16" type="line"/>
      <point x="69" y="92"/>
      <point x="89" y="148"/>
      <point x="91" y="243" type="curve" smooth="yes"/>
      <point x="92" y="267"/>
      <point x="91" y="294"/>
      <point x="89" y="319" type="curve"/>
      <point x="38" y="319" type="line"/>
      <point x="38" y="335" type="line"/>
      <point x="88" y="335" type="line"/>
      <point x="84" y="366"/>
      <point x="78" y="394"/>
      <point x="72" y="416" type="curve" smooth="yes"/>
      <point x="56" y="476"/>
      <point x="46" y="521"/>
      <point x="46" y="569" type="curve" smooth="yes"/>
      <point x="46" y="652"/>
      <point x="84" y="708"/>
      <point x="146" y="708" type="curve" smooth="yes"/>
      <point x="208" y="708"/>
      <point x="241" y="654"/>
      <point x="259" y="553" type="curve"/>
      <point x="240" y="549" type="line"/>
      <point x="224" y="639"/>
      <point x="197" y="690"/>
      <point x="146" y="690" type="curve" smooth="yes"/>
      <point x="94" y="690"/>
      <point x="65" y="640"/>
      <point x="65" y="570" type="curve" smooth="yes"/>
      <point x="65" y="524"/>
      <point x="71" y="491"/>
      <point x="89" y="423" type="curve" smooth="yes"/>
      <point x="95" y="401"/>
      <point x="102" y="368"/>
      <point x="106" y="335" type="curve"/>
      <point x="200" y="335" type="line"/>
      <point x="200" y="319" type="line"/>
      <point x="107" y="319" type="line"/>
      <point x="109" y="293"/>
      <point x="110" y="266"/>
      <point x="109" y="243" type="curve" smooth="yes"/>
      <point x="107" y="148"/>
      <point x="87" y="89"/>
      <point x="56" y="17" type="curve"/>
      <point x="259" y="17" type="line"/>
      <point x="259" y="0" type="line"/>
    </contour>
  </outline>
</glyph>
<glyph name="yen" format="1">
  <advance width="295"/>
  <unicode hex="00A5"/>
  <outline>
    <contour>
      <point x="272" y="700" type="line"/>
      <point x="156" y="300" type="line"/>
      <point x="156" y="180" type="line"/>
      <point x="237" y="180" type="line"/>
      <point x="237" y="164" type="line"/>
      <point x="156" y="164" type="line"/>
      <point x="156" y="0" type="line"/>
      <point x="139" y="0" type="line"/>
      <point x="139" y="164" type="line"/>
      <point x="58" y="164" type="line"/>
      <point x="58" y="180" type="line"/>
      <point x="139" y="180" type="line"/>
      <point x="139" y="300" type="line"/>
      <point x="22" y="700" type="line"/>
      <point x="42" y="700" type="line"/>
      <point x="116" y="440" type="line" smooth="yes"/>
      <point x="120" y="426"/>
      <point x="146" y="333"/>
      <point x="148" y="323" type="curve"/>
      <point x="149" y="333"/>
      <point x="175" y="423"/>
      <point x="179" y="437" type="curve" smooth="yes"/>
      <point x="254" y="700" type="line"/>
    </contour>
  </outline>
</glyph>
<glyph name="section" format="1">
  <advance width="297"/>
  <unicode hex="00A7"/>
  <outline>
    <contour>
      <point x="265" y="256" type="curve" smooth="yes"/>
      <point x="265" y="180"/>
      <point x="235" y="125"/>
      <point x="180" y="86" type="curve"/>
      <point x="218" y="45"/>
      <point x="234" y="11"/>
      <point x="234" y="-40" type="curve" smooth="yes"/>
      <point x="234" y="-110"/>
      <point x="200" y="-161"/>
      <point x="148" y="-161" type="curve" smooth="yes"/>
      <point x="93" y="-161"/>
      <point x="60" y="-116"/>
      <point x="49" y="-15" type="curve"/>
      <point x="67" y="-11" type="line"/>
      <point x="78" y="-103"/>
      <point x="104" y="-143"/>
      <point x="149" y="-143" type="curve" smooth="yes"/>
      <point x="189" y="-143"/>
      <point x="215" y="-99"/>
      <point x="215" y="-42" type="curve" smooth="yes"/>
      <point x="215" y="16"/>
      <point x="194" y="53"/>
      <point x="133" y="105" type="curve" smooth="yes"/>
      <point x="66" y="163"/>
      <point x="32" y="208"/>
      <point x="32" y="291" type="curve" smooth="yes"/>
      <point x="32" y="367"/>
      <point x="62" y="422"/>
      <point x="116" y="461" type="curve"/>
      <point x="78" y="502"/>
      <point x="63" y="536"/>
      <point x="63" y="587" type="curve" smooth="yes"/>
      <point x="63" y="658"/>
      <point x="97" y="708"/>
      <point x="149" y="708" type="curve" smooth="yes"/>
      <point x="204" y="708"/>
      <point x="236" y="663"/>
      <point x="248" y="562" type="curve"/>
      <point x="230" y="558" type="line"/>
      <point x="219" y="650"/>
      <point x="192" y="690"/>
      <point x="148" y="690" type="curve" smooth="yes"/>
      <point x="107" y="690"/>
      <point x="82" y="646"/>
      <point x="82" y="589" type="curve" smooth="yes"/>
      <point x="82" y="531"/>
      <point x="103" y="494"/>
      <point x="164" y="442" type="curve" smooth="yes"/>
      <point x="232" y="384"/>
      <point x="265" y="339"/>
    </contour>
    <contour>
      <point x="246" y="254" type="curve" smooth="yes"/>
      <point x="246" y="328"/>
      <point x="218" y="371"/>
      <point x="157" y="424" type="curve" smooth="yes"/>
      <point x="147" y="433"/>
      <point x="138" y="441"/>
      <point x="128" y="449" type="curve"/>
      <point x="77" y="414"/>
      <point x="50" y="363"/>
      <point x="50" y="293" type="curve" smooth="yes"/>
      <point x="50" y="219"/>
      <point x="79" y="176"/>
      <point x="140" y="123" type="curve" smooth="yes"/>
      <point x="150" y="114"/>
      <point x="159" y="106"/>
      <point x="168" y="97" type="curve"/>
      <point x="219" y="133"/>
      <point x="246" y="184"/>
    </contour>
  </outline>
</glyph>
<glyph name="dieresis" format="1">
  <advance width="316"/>
  <unicode hex="00A8"/>
  <outline>
    <contour>
      <point x="219" y="625" type="curve" smooth="yes"/>
      <point x="206" y="625"/>
      <point x="196" y="635"/>
      <point x="196" y="648" type="curve" smooth="yes"/>
      <point x="196" y="661"/>
      <point x="206" y="672"/>
      <point x="219" y="672" type="curve" smooth="yes"/>
      <point x="232" y="672"/>
      <point x="242" y="661"/>
      <point x="242" y="648" type="curve" smooth="yes"/>
      <point x="242" y="635"/>
      <point x="232" y="625"/>
    </contour>
    <contour>
      <point x="97" y="625" type="curve" smooth="yes"/>
      <point x="84" y="625"/>
      <point x="74" y="635"/>
      <point x="74" y="648" type="curve" smooth="yes"/>
      <point x="74" y="661"/>
      <point x="84" y="672"/>
      <point x="97" y="672" type="curve" smooth="yes"/>
      <point x="110" y="672"/>
      <point x="120" y="661"/>
      <point x="120" y="648" type="curve" smooth="yes"/>
      <point x="120" y="635"/>
      <point x="110" y="625"/>
    </contour>
  </outline>
</glyph>
<glyph name="copyright" format="1">
  <advance width="448"/>
  <unicode hex="00A9"/>
  <outline>
    <contour>
      <point x="411" y="352" type="curve" smooth="yes"/>
      <point x="411" y="149"/>
      <point x="348" y="-9"/>
      <point x="224" y="-9" type="curve" smooth="yes"/>
      <point x="100" y="-9"/>
      <point x="37" y="149"/>
      <point x="37" y="352" type="curve" smooth="yes"/>
      <point x="37" y="554"/>
      <point x="100" y="712"/>
      <point x="224" y="712" type="curve" smooth="yes"/>
      <point x="348" y="712"/>
      <point x="411" y="554"/>
    </contour>
    <contour>
      <point x="397" y="352" type="curve" smooth="yes"/>
      <point x="397" y="546"/>
      <point x="340" y="698"/>
      <point x="224" y="698" type="curve" smooth="yes"/>
      <point x="107" y="698"/>
      <point x="51" y="546"/>
      <point x="51" y="352" type="curve" smooth="yes"/>
      <point x="51" y="157"/>
      <point x="107" y="5"/>
      <point x="224" y="5" type="curve" smooth="yes"/>
      <point x="340" y="5"/>
      <point x="397" y="157"/>
    </contour>
    <contour>
      <point x="283" y="247" type="line"/>
      <point x="272" y="176"/>
      <point x="253" y="150"/>
      <point x="222" y="150" type="curve" smooth="yes"/>
      <point x="180" y="150"/>
      <point x="154" y="201"/>
      <point x="154" y="351" type="curve" smooth="yes"/>
      <point x="154" y="501"/>
      <point x="181" y="552"/>
      <point x="222" y="552" type="curve" smooth="yes"/>
      <point x="253" y="552"/>
      <point x="272" y="525"/>
      <point x="283" y="455" type="curve"/>
      <point x="269" y="452" type="line"/>
      <point x="258" y="518"/>
      <point x="244" y="538"/>
      <point x="222" y="538" type="curve" smooth="yes"/>
      <point x="189" y="538"/>
      <point x="169" y="491"/>
      <point x="169" y="351" type="curve" smooth="yes"/>
      <point x="169" y="211"/>
      <point x="189" y="165"/>
      <point x="223" y="165" type="curve" smooth="yes"/>
      <point x="245" y="165"/>
      <point x="259" y="185"/>
      <point x="269" y="250" type="curve"/>
    </contour>
  </outline>
</glyph>
<glyph name="ordfeminine" format="1">
  <advance width="255"/>
  <unicode hex="00AA"/>
  <outline>
    <contour>
      <point x="120" y="273" type="curve" smooth="yes"/>
      <point x="72" y="273"/>
      <point x="41" y="311"/>
      <point x="41" y="408" type="curve" smooth="yes"/>
      <point x="41" y="507"/>
      <point x="73" y="543"/>
      <point x="123" y="543" type="curve" smooth="yes"/>
      <point x="149" y="543"/>
      <point x="172" y="533"/>
      <point x="191" y="517" type="curve"/>
      <point x="191" y="619" type="line" smooth="yes"/>
      <point x="191" y="670"/>
      <point x="178" y="695"/>
      <point x="138" y="695" type="curve" smooth="yes"/>
      <point x="112" y="695"/>
      <point x="89" y="683"/>
      <point x="65" y="660" type="curve"/>
      <point x="55" y="673" type="line"/>
      <point x="81" y="697"/>
      <point x="107" y="711"/>
      <point x="138" y="711" type="curve" smooth="yes"/>
      <point x="189" y="711"/>
      <point x="207" y="685"/>
      <point x="207" y="620" type="curve" smooth="yes"/>
      <point x="207" y="277" type="line"/>
      <point x="191" y="277" type="line"/>
      <point x="191" y="311" type="line"/>
      <point x="169" y="283"/>
      <point x="144" y="273"/>
    </contour>
    <contour>
      <point x="122" y="289" type="curve" smooth="yes"/>
      <point x="145" y="289"/>
      <point x="170" y="302"/>
      <point x="191" y="329" type="curve"/>
      <point x="191" y="500" type="line"/>
      <point x="169" y="518"/>
      <point x="151" y="528"/>
      <point x="123" y="528" type="curve" smooth="yes"/>
      <point x="82" y="528"/>
      <point x="58" y="494"/>
      <point x="58" y="408" type="curve" smooth="yes"/>
      <point x="58" y="325"/>
      <point x="82" y="289"/>
    </contour>
  </outline>
</glyph>
<glyph name="guillemotleft" format="1">
  <advance width="313"/>
  <unicode hex="00AB"/>
  <outline>
    <contour>
      <point x="283" y="-1" type="line"/>
      <point x="263" y="-1" type="line"/>
      <point x="139" y="262" type="line"/>
      <point x="263" y="524" type="line"/>
      <point x="283" y="524" type="line"/>
      <point x="158" y="262" type="line"/>
    </contour>
    <contour>
      <point x="163" y="-1" type="line"/>
      <point x="143" y="-1" type="line"/>
      <point x="19" y="262" type="line"/>
      <point x="143" y="524" type="line"/>
      <point x="163" y="524" type="line"/>
      <point x="38" y="262" type="line"/>
    </contour>
  </outline>
</glyph>
<glyph name="degree" format="1">
  <advance width="251"/>
  <unicode hex="00B0"/>
  <outline>
    <contour>
      <point x="222" y="607" type="curve" smooth="yes"/>
      <point x="222" y="551"/>
      <point x="182" y="506"/>
      <point x="125" y="506" type="curve" smooth="yes"/>
      <point x="69" y="506"/>
      <point x="29" y="551"/>
      <point x="29" y="607" type="curve" smooth="yes"/>
      <point x="29" y="662"/>
      <point x="69" y="706"/>
      <point x="125" y="706" type="curve" smooth="yes"/>
      <point x="182" y="706"/>
      <point x="222" y="662"/>
    </contour>
    <contour>
      <point x="205" y="607" type="curve" smooth="yes"/>
      <point x="205" y="654"/>
      <point x="173" y="691"/>
      <point x="125" y="691" type="curve" smooth="yes"/>
      <point x="78" y="691"/>
      <point x="46" y="654"/>
      <point x="46" y="607" type="curve" smooth="yes"/>
      <point x="46" y="559"/>
      <point x="78" y="522"/>
      <point x="125" y="522" type="curve" smooth="yes"/>
      <point x="173" y="522"/>
      <point x="205" y="559"/>
    </contour>
  </outline>
</glyph>
<glyph name="acute" format="1">
  <advance width="316"/>
  <unicode hex="00B4"/>
  <outline>
    <contour>
      <point x="241" y="760" type="line"/>
      <point x="151" y="600" type="line"/>
      <point x="137" y="600" type="line"/>
      <point x="217" y="760" type="line"/>
    </contour>
  </outline>
</glyph>
<glyph name="paragraph" format="1">
  <advance width="382"/>
  <unicode hex="00B6"/>
  <outline>
    <contour>
      <point x="328" y="-185" type="line"/>
      <point x="310" y="-185" type="line"/>
      <point x="310" y="684" type="line"/>
      <point x="230" y="684" type="line"/>
      <point x="230" y="-185" type="line"/>
      <point x="212" y="-185" type="line"/>
      <point x="212" y="318" type="line"/>
      <point x="190" y="318" type="line" smooth="yes"/>
      <point x="84" y="318"/>
      <point x="23" y="394"/>
      <point x="23" y="512" type="curve" smooth="yes"/>
      <point x="23" y="634"/>
      <point x="93" y="700"/>
      <point x="191" y="700" type="curve" smooth="yes"/>
      <point x="328" y="700" type="line"/>
    </contour>
    <contour>
      <point x="212" y="334" type="line"/>
      <point x="212" y="684" type="line"/>
      <point x="190" y="684" type="line" smooth="yes"/>
      <point x="97" y="684"/>
      <point x="40" y="619"/>
      <point x="40" y="512" type="curve" smooth="yes"/>
      <point x="40" y="408"/>
      <point x="89" y="334"/>
      <point x="190" y="334" type="curve" smooth="yes"/>
    </contour>
  </outline>
</glyph>
<glyph name="periodcentered" format="1">
  <advance width="84"/>
  <unicode hex="00B7"/>
  <outline>
    <contour>
      <point x="42" y="344" type="curve" smooth="yes"/>
      <point x="29" y="344"/>
      <point x="19" y="354"/>
      <point x="19" y="367" type="curve" smooth="yes"/>
      <point x="19" y="380"/>
      <point x="29" y="391"/>
      <point x="42" y="391" type="curve" smooth="yes"/>
      <point x="55" y="391"/>
      <point x="65" y="380"/>
      <point x="65" y="367" type="curve" smooth="yes"/>
      <point x="65" y="354"/>
      <point x="55" y="344"/>
    </contour>
  </outline>
</glyph>
<glyph name="cedilla" format="1">
  <advance width="316"/>
  <unicode hex="00B8"/>
  <outline>
    <contour>
      <point x="174" y="-2" type="line"/>
      <point x="152" y="-65" type="line"/>
      <point x="159" y="-60"/>
      <point x="171" y="-56"/>
      <point x="186" y="-56" type="curve" smooth="yes"/>
      <point x="210" y="-56"/>
      <point x="235" y="-75"/>
      <point x="235" y="-115" type="curve" smooth="yes"/>
      <point x="235" y="-168"/>
      <point x="204" y="-194"/>
      <point x="168" y="-194" type="curve" smooth="yes"/>
      <point x="146" y="-194"/>
      <point x="123" y="-186"/>
      <point x="105" y="-167" type="curve"/>
      <point x="115" y="-155" type="line"/>
      <point x="131" y="-172"/>
      <point x="149" y="-179"/>
      <point x="167" y="-179" type="curve" smooth="yes"/>
      <point x="196" y="-179"/>
      <point x="217" y="-157"/>
      <point x="217" y="-116" type="curve" smooth="yes"/>
      <point x="217" y="-85"/>
      <point x="201" y="-71"/>
      <point x="182" y="-71" type="curve" smooth="yes"/>
      <point x="164" y="-71"/>
      <point x="153" y="-77"/>
      <point x="145" y="-83" type="curve"/>
      <point x="133" y="-76" type="line"/>
      <point x="159" y="-2" type="line"/>
    </contour>
  </outline>
</glyph>
<glyph name="ordmasculine" format="1">
  <advance width="280"/>
  <unicode hex="00BA"/>
  <outline>
    <contour>
      <point x="235" y="491" type="curve" smooth="yes"/>
      <point x="235" y="359"/>
      <point x="208" y="270"/>
      <point x="140" y="270" type="curve" smooth="yes"/>
      <point x="73" y="270"/>
      <point x="45" y="358"/>
      <point x="45" y="490" type="curve" smooth="yes"/>
      <point x="45" y="623"/>
      <point x="73" y="711"/>
      <point x="140" y="711" type="curve" smooth="yes"/>
      <point x="208" y="711"/>
      <point x="235" y="624"/>
    </contour>
    <contour>
      <point x="217" y="491" type="curve" smooth="yes"/>
      <point x="217" y="614"/>
      <point x="196" y="694"/>
      <point x="140" y="694" type="curve" smooth="yes"/>
      <point x="83" y="694"/>
      <point x="63" y="613"/>
      <point x="63" y="490" type="curve" smooth="yes"/>
      <point x="63" y="368"/>
      <point x="84" y="287"/>
      <point x="140" y="287" type="curve" smooth="yes"/>
      <point x="197" y="287"/>
      <point x="217" y="369"/>
    </contour>
  </outline>
</glyph>
<glyph name="guillemotright" format="1">
  <advance width="313"/>
  <unicode hex="00BB"/>
  <outline>
    <contour>
      <point x="170" y="0" type="line"/>
      <point x="150" y="0" type="line"/>
      <point x="275" y="262" type="line"/>
      <point x="150" y="525" type="line"/>
      <point x="170" y="525" type="line"/>
      <point x="294" y="262" type="line"/>
    </contour>
    <contour>
      <point x="50" y="0" type="line"/>
      <point x="30" y="0" type="line"/>
      <point x="155" y="262" type="line"/>
      <point x="30" y="525" type="line"/>
      <point x="50" y="525" type="line"/>
      <point x="174" y="262" type="line"/>
    </contour>
  </outline>
</glyph>
<glyph name="Aring" format="1">
  <advance width="335"/>
  <unicode hex="00C5"/>
  <outline>
    <contour>
      <point x="298" y="0" type="line"/>
      <point x="278" y="0" type="line"/>
      <point x="244" y="207" type="line"/>
      <point x="91" y="207" type="line"/>
      <point x="56" y="0" type="line"/>
      <point x="37" y="0" type="line"/>
      <point x="155" y="689" type="line"/>
      <point x="119" y="694"/>
      <point x="90" y="726"/>
      <point x="90" y="764" type="curve" smooth="yes"/>
      <point x="90" y="807"/>
      <point x="124" y="841"/>
      <point x="167" y="841" type="curve" smooth="yes"/>
      <point x="211" y="841"/>
      <point x="245" y="807"/>
      <point x="245" y="764" type="curve" smooth="yes"/>
      <point x="245" y="726"/>
      <point x="216" y="694"/>
      <point x="180" y="689" type="curve"/>
    </contour>
    <contour>
      <point x="231" y="764" type="curve" smooth="yes"/>
      <point x="231" y="800"/>
      <point x="203" y="828"/>
      <point x="167" y="828" type="curve" smooth="yes"/>
      <point x="131" y="828"/>
      <point x="104" y="800"/>
      <point x="104" y="764" type="curve" smooth="yes"/>
      <point x="104" y="728"/>
      <point x="131" y="700"/>
      <point x="167" y="700" type="curve" smooth="yes"/>
      <point x="203" y="700"/>
      <point x="231" y="728"/>
    </contour>
    <contour>
      <point x="241" y="225" type="line"/>
      <point x="241" y="225"/>
      <point x="169" y="653"/>
      <point x="167" y="670" type="curve"/>
      <point x="166" y="653"/>
      <point x="94" y="225"/>
      <point x="94" y="225" type="curve"/>
    </contour>
  </outline>
</glyph>
<glyph name="AE" format="1">
  <advance width="436"/>
  <unicode hex="00C6"/>
  <outline>
    <contour>
      <point x="14" y="0" type="line"/>
      <point x="233" y="700" type="line"/>
      <point x="418" y="700" type="line"/>
      <point x="418" y="683" type="line"/>
      <point x="259" y="683" type="line"/>
      <point x="259" y="383" type="line"/>
      <point x="370" y="383" type="line"/>
      <point x="370" y="365" type="line"/>
      <point x="259" y="365" type="line"/>
      <point x="259" y="17" type="line"/>
      <point x="428" y="17" type="line"/>
      <point x="428" y="0" type="line"/>
      <point x="241" y="0" type="line"/>
      <point x="241" y="208" type="line"/>
      <point x="97" y="208" type="line"/>
      <point x="33" y="0" type="line"/>
    </contour>
    <contour>
      <point x="102" y="225" type="curve"/>
      <point x="241" y="225" type="line"/>
      <point x="241" y="225"/>
      <point x="241" y="668"/>
      <point x="241" y="675" type="curve"/>
      <point x="240" y="666"/>
      <point x="102" y="225"/>
    </contour>
  </outline>
</glyph>
<glyph name="Ccedilla" format="1">
  <advance width="301"/>
  <unicode hex="00C7"/>
  <outline>
    <contour>
      <point x="167" y="-8" type="curve"/>
      <point x="147" y="-66" type="line"/>
      <point x="155" y="-60"/>
      <point x="167" y="-57"/>
      <point x="181" y="-57" type="curve" smooth="yes"/>
      <point x="205" y="-57"/>
      <point x="229" y="-76"/>
      <point x="229" y="-115" type="curve" smooth="yes"/>
      <point x="229" y="-167"/>
      <point x="199" y="-193"/>
      <point x="163" y="-193" type="curve" smooth="yes"/>
      <point x="142" y="-193"/>
      <point x="120" y="-185"/>
      <point x="102" y="-166" type="curve"/>
      <point x="109" y="-155" type="line"/>
      <point x="125" y="-172"/>
      <point x="144" y="-180"/>
      <point x="162" y="-180" type="curve" smooth="yes"/>
      <point x="192" y="-180"/>
      <point x="212" y="-158"/>
      <point x="212" y="-116" type="curve" smooth="yes"/>
      <point x="212" y="-84"/>
      <point x="196" y="-70"/>
      <point x="177" y="-70" type="curve" smooth="yes"/>
      <point x="165" y="-70"/>
      <point x="152" y="-72"/>
      <point x="140" y="-82" type="curve"/>
      <point x="130" y="-77" type="line"/>
      <point x="154" y="-7" type="line"/>
      <point x="86" y="-2"/>
      <point x="43" y="91"/>
      <point x="43" y="350" type="curve" smooth="yes"/>
      <point x="43" y="613"/>
      <point x="87" y="708"/>
      <point x="161" y="708" type="curve" smooth="yes"/>
      <point x="214" y="708"/>
      <point x="247" y="662"/>
      <point x="266" y="537" type="curve"/>
      <point x="247" y="533" type="line"/>
      <point x="228" y="653"/>
      <point x="201" y="690"/>
      <point x="160" y="690" type="curve" smooth="yes"/>
      <point x="101" y="690"/>
      <point x="62" y="603"/>
      <point x="62" y="350" type="curve" smooth="yes"/>
      <point x="62" y="95"/>
      <point x="102" y="10"/>
      <point x="161" y="10" type="curve" smooth="yes"/>
      <point x="203" y="10"/>
      <point x="230" y="49"/>
      <point x="248" y="166" type="curve"/>
      <point x="266" y="161" type="line"/>
      <point x="248" y="42"/>
      <point x="215" y="-5"/>
    </contour>
  </outline>
</glyph>
<glyph name="Eth" format="1">
  <advance width="332"/>
  <unicode hex="00D0"/>
  <outline>
    <contour>
      <point x="64" y="0" type="line"/>
      <point x="64" y="358" type="line"/>
      <point x="18" y="358" type="line"/>
      <point x="18" y="375" type="line"/>
      <point x="64" y="375" type="line"/>
      <point x="64" y="700" type="line"/>
      <point x="135" y="700" type="line" smooth="yes"/>
      <point x="250" y="700"/>
      <point x="293" y="605"/>
      <point x="293" y="351" type="curve" smooth="yes"/>
      <point x="293" y="92"/>
      <point x="246" y="0"/>
      <point x="133" y="0" type="curve" smooth="yes"/>
    </contour>
    <contour>
      <point x="82" y="18" type="line"/>
      <point x="134" y="18" type="line" smooth="yes"/>
      <point x="232" y="18"/>
      <point x="274" y="101"/>
      <point x="274" y="350" type="curve" smooth="yes"/>
      <point x="274" y="596"/>
      <point x="233" y="682"/>
      <point x="135" y="682" type="curve" smooth="yes"/>
      <point x="82" y="682" type="line"/>
      <point x="82" y="375" type="line"/>
      <point x="169" y="375" type="line"/>
      <point x="169" y="358" type="line"/>
      <point x="82" y="358" type="line"/>
    </contour>
  </outline>
</glyph>
<glyph name="Oslash" format="1">
  <advance width="329"/>
  <unicode hex="00D8"/>
  <outline>
    <contour>
      <point x="74" y="73" type="line"/>
      <point x="54" y="129"/>
      <point x="43" y="219"/>
      <point x="43" y="350" type="curve" smooth="yes"/>
      <point x="43" y="614"/>
      <point x="87" y="708"/>
      <point x="164" y="708" type="curve" smooth="yes"/>
      <point x="198" y="708"/>
      <point x="225" y="690"/>
      <point x="246" y="649" type="curve"/>
      <point x="276" y="750" type="line"/>
      <point x="293" y="750" type="line"/>
      <point x="255" y="625" type="line"/>
      <point x="276" y="567"/>
      <point x="286" y="479"/>
      <point x="286" y="350" type="curve" smooth="yes"/>
      <point x="286" y="86"/>
      <point x="242" y="-8"/>
      <point x="164" y="-8" type="curve" smooth="yes"/>
      <point x="131" y="-8"/>
      <point x="103" y="10"/>
      <point x="83" y="51" type="curve"/>
      <point x="72" y="13"/>
      <point x="53" y="-50"/>
      <point x="53" y="-50" type="curve"/>
      <point x="37" y="-50" type="line"/>
    </contour>
    <contour>
      <point x="84" y="106" type="curve"/>
      <point x="237" y="620" type="line"/>
      <point x="220" y="670"/>
      <point x="195" y="690"/>
      <point x="164" y="690" type="curve" smooth="yes"/>
      <point x="101" y="690"/>
      <point x="62" y="604"/>
      <point x="62" y="350" type="curve" smooth="yes"/>
      <point x="62" y="239"/>
      <point x="70" y="160"/>
    </contour>
    <contour>
      <point x="246" y="593" type="curve"/>
      <point x="246" y="593"/>
      <point x="92" y="80"/>
      <point x="92" y="79" type="curve"/>
      <point x="109" y="30"/>
      <point x="135" y="10"/>
      <point x="165" y="10" type="curve" smooth="yes"/>
      <point x="227" y="10"/>
      <point x="267" y="96"/>
      <point x="267" y="350" type="curve" smooth="yes"/>
      <point x="267" y="460"/>
      <point x="259" y="539"/>
    </contour>
  </outline>
</glyph>
<glyph name="Thorn" format="1">
  <advance width="292"/>
  <unicode hex="00DE"/>
  <outline>
    <contour>
      <point x="265" y="359" type="curve" smooth="yes"/>
      <point x="265" y="221"/>
      <point x="200" y="178"/>
      <point x="107" y="178" type="curve" smooth="yes"/>
      <point x="73" y="178" type="line"/>
      <point x="73" y="0" type="line"/>
      <point x="54" y="0" type="line"/>
      <point x="54" y="700" type="line"/>
      <point x="73" y="700" type="line"/>
      <point x="73" y="537" type="line"/>
      <point x="109" y="537" type="line" smooth="yes"/>
      <point x="203" y="537"/>
      <point x="265" y="495"/>
    </contour>
    <contour>
      <point x="246" y="358" type="curve" smooth="yes"/>
      <point x="246" y="480"/>
      <point x="193" y="519"/>
      <point x="108" y="519" type="curve" smooth="yes"/>
      <point x="73" y="519" type="line"/>
      <point x="73" y="196" type="line"/>
      <point x="108" y="196" type="line" smooth="yes"/>
      <point x="193" y="196"/>
      <point x="246" y="236"/>
    </contour>
  </outline>
</glyph>
<glyph name="germandbls" format="1">
  <advance width="316"/>
  <unicode hex="00DF"/>
  <outline>
    <contour>
      <point x="278" y="213" type="curve" smooth="yes"/>
      <point x="278" y="63"/>
      <point x="239" y="0"/>
      <point x="146" y="0" type="curve" smooth="yes"/>
      <point x="137" y="0" type="line"/>
      <point x="137" y="17" type="line"/>
      <point x="146" y="17" type="line" smooth="yes"/>
      <point x="229" y="17"/>
      <point x="259" y="77"/>
      <point x="259" y="213" type="curve" smooth="yes"/>
      <point x="259" y="339"/>
      <point x="211" y="393"/>
      <point x="146" y="393" type="curve" smooth="yes"/>
      <point x="137" y="393" type="line"/>
      <point x="137" y="411" type="line"/>
      <point x="139" y="411"/>
      <point x="144" y="411"/>
      <point x="144" y="411" type="curve" smooth="yes"/>
      <point x="192" y="411"/>
      <point x="230" y="455"/>
      <point x="230" y="564" type="curve" smooth="yes"/>
      <point x="230" y="658"/>
      <point x="200" y="708"/>
      <point x="147" y="708" type="curve" smooth="yes"/>
      <point x="95" y="708"/>
      <point x="67" y="661"/>
      <point x="67" y="558" type="curve" smooth="yes"/>
      <point x="67" y="-176" type="line"/>
      <point x="49" y="-187" type="line"/>
      <point x="49" y="557" type="line" smooth="yes"/>
      <point x="49" y="674"/>
      <point x="85" y="726"/>
      <point x="148" y="726" type="curve" smooth="yes"/>
      <point x="211" y="726"/>
      <point x="249" y="670"/>
      <point x="249" y="564" type="curve" smooth="yes"/>
      <point x="249" y="463"/>
      <point x="218" y="416"/>
      <point x="174" y="404" type="curve"/>
      <point x="228" y="394"/>
      <point x="278" y="345"/>
    </contour>
  </outline>
</glyph>
<glyph name="ae" format="1">
  <advance width="469"/>
  <unicode hex="00E6"/>
  <outline>
    <contour>
      <point x="433" y="259" type="curve"/>
      <point x="235" y="259" type="line"/>
      <point x="235" y="258"/>
      <point x="235" y="257"/>
      <point x="235" y="256" type="curve" smooth="yes"/>
      <point x="235" y="112"/>
      <point x="262" y="10"/>
      <point x="328" y="10" type="curve" smooth="yes"/>
      <point x="368" y="10"/>
      <point x="395" y="41"/>
      <point x="413" y="108" type="curve"/>
      <point x="426" y="100" type="line"/>
      <point x="408" y="28"/>
      <point x="376" y="-8"/>
      <point x="328" y="-8" type="curve" smooth="yes"/>
      <point x="288" y="-8"/>
      <point x="259" y="20"/>
      <point x="241" y="67" type="curve"/>
      <point x="210" y="25"/>
      <point x="178" y="-7"/>
      <point x="129" y="-7" type="curve" smooth="yes"/>
      <point x="66" y="-7"/>
      <point x="29" y="39"/>
      <point x="29" y="159" type="curve" smooth="yes"/>
      <point x="29" y="281"/>
      <point x="70" y="326"/>
      <point x="131" y="326" type="curve" smooth="yes"/>
      <point x="165" y="326"/>
      <point x="192" y="312"/>
      <point x="217" y="291" type="curve"/>
      <point x="217" y="419" type="line" smooth="yes"/>
      <point x="217" y="484"/>
      <point x="198" y="515"/>
      <point x="149" y="515" type="curve" smooth="yes"/>
      <point x="117" y="515"/>
      <point x="88" y="501"/>
      <point x="60" y="471" type="curve"/>
      <point x="48" y="484" type="line"/>
      <point x="78" y="516"/>
      <point x="112" y="533"/>
      <point x="150" y="533" type="curve" smooth="yes"/>
      <point x="207" y="533"/>
      <point x="234" y="506"/>
      <point x="234" y="426" type="curve" smooth="yes"/>
      <point x="234" y="411" type="line"/>
      <point x="247" y="478"/>
      <point x="272" y="533"/>
      <point x="328" y="533" type="curve" smooth="yes"/>
      <point x="402" y="533"/>
      <point x="433" y="418"/>
      <point x="433" y="271" type="curve" smooth="yes"/>
      <point x="433" y="268"/>
      <point x="433" y="261"/>
    </contour>
    <contour>
      <point x="415" y="275" type="line"/>
      <point x="415" y="277"/>
      <point x="415" y="282"/>
      <point x="415" y="283" type="curve" smooth="yes"/>
      <point x="414" y="409"/>
      <point x="389" y="515"/>
      <point x="328" y="515" type="curve" smooth="yes"/>
      <point x="265" y="515"/>
      <point x="237" y="418"/>
      <point x="235" y="275" type="curve"/>
    </contour>
    <contour>
      <point x="235" y="85" type="curve"/>
      <point x="222" y="130"/>
      <point x="217" y="190"/>
      <point x="217" y="259" type="curve" smooth="yes"/>
      <point x="217" y="264"/>
      <point x="217" y="268"/>
      <point x="217" y="273" type="curve"/>
      <point x="190" y="295"/>
      <point x="164" y="309"/>
      <point x="132" y="309" type="curve" smooth="yes"/>
      <point x="80" y="309"/>
      <point x="48" y="267"/>
      <point x="48" y="160" type="curve" smooth="yes"/>
      <point x="48" y="51"/>
      <point x="79" y="10"/>
      <point x="132" y="10" type="curve" smooth="yes"/>
      <point x="175" y="10"/>
      <point x="207" y="44"/>
    </contour>
  </outline>
</glyph>
<glyph name="ccedilla" format="1">
  <advance width="269"/>
  <unicode hex="00E7"/>
  <outline>
    <contour>
      <point x="137" y="-7" type="line"/>
      <point x="69" y="3"/>
      <point x="36" y="110"/>
      <point x="36" y="261" type="curve" smooth="yes"/>
      <point x="36" y="423"/>
      <point x="72" y="533"/>
      <point x="148" y="533" type="curve" smooth="yes"/>
      <point x="203" y="533"/>
      <point x="231" y="474"/>
      <point x="243" y="405" type="curve"/>
      <point x="227" y="399" type="line"/>
      <point x="215" y="462"/>
      <point x="193" y="515"/>
      <point x="147" y="515" type="curve" smooth="yes"/>
      <point x="85" y="515"/>
      <point x="55" y="415"/>
      <point x="55" y="262" type="curve" smooth="yes"/>
      <point x="55" y="115"/>
      <point x="84" y="10"/>
      <point x="148" y="10" type="curve" smooth="yes"/>
      <point x="188" y="10"/>
      <point x="213" y="49"/>
      <point x="230" y="122" type="curve"/>
      <point x="245" y="115" type="line"/>
      <point x="228" y="38"/>
      <point x="198" y="-5"/>
      <point x="152" y="-8" type="curve"/>
      <point x="132" y="-65" type="line"/>
      <point x="139" y="-60"/>
      <point x="151" y="-56"/>
      <point x="166" y="-56" type="curve" smooth="yes"/>
      <point x="190" y="-56"/>
      <point x="215" y="-75"/>
      <point x="215" y="-115" type="curve" smooth="yes"/>
      <point x="215" y="-168"/>
      <point x="184" y="-194"/>
      <point x="148" y="-194" type="curve" smooth="yes"/>
      <point x="126" y="-194"/>
      <point x="103" y="-186"/>
      <point x="85" y="-167" type="curve"/>
      <point x="95" y="-155" type="line"/>
      <point x="111" y="-172"/>
      <point x="129" y="-179"/>
      <point x="147" y="-179" type="curve" smooth="yes"/>
      <point x="176" y="-179"/>
      <point x="197" y="-157"/>
      <point x="197" y="-116" type="curve" smooth="yes"/>
      <point x="197" y="-85"/>
      <point x="181" y="-71"/>
      <point x="162" y="-71" type="curve" smooth="yes"/>
      <point x="144" y="-71"/>
      <point x="133" y="-77"/>
      <point x="125" y="-83" type="curve"/>
      <point x="113" y="-76" type="line"/>
    </contour>
  </outline>
</glyph>
<glyph name="eth" format="1">
  <advance width="321"/>
  <unicode hex="00F0"/>
  <outline>
    <contour>
      <point x="294" y="253" type="curve" smooth="yes"/>
      <point x="294" y="101"/>
      <point x="252" y="-8"/>
      <point x="165" y="-8" type="curve" smooth="yes"/>
      <point x="78" y="-8"/>
      <point x="36" y="106"/>
      <point x="36" y="238" type="curve" smooth="yes"/>
      <point x="36" y="381"/>
      <point x="84" y="484"/>
      <point x="161" y="484" type="curve" smooth="yes"/>
      <point x="218" y="484"/>
      <point x="252" y="435"/>
      <point x="272" y="379" type="curve"/>
      <point x="260" y="484"/>
      <point x="231" y="559"/>
      <point x="193" y="611" type="curve"/>
      <point x="135" y="545" type="line"/>
      <point x="123" y="556" type="line"/>
      <point x="183" y="623" type="line"/>
      <point x="157" y="656"/>
      <point x="126" y="679"/>
      <point x="98" y="693" type="curve"/>
      <point x="100" y="711" type="line"/>
      <point x="131" y="696"/>
      <point x="164" y="673"/>
      <point x="194" y="636" type="curve"/>
      <point x="251" y="700" type="line"/>
      <point x="263" y="689" type="line"/>
      <point x="205" y="623" type="line"/>
      <point x="256" y="553"/>
      <point x="294" y="438"/>
    </contour>
    <contour>
      <point x="276" y="238" type="curve" smooth="yes"/>
      <point x="276" y="282"/>
      <point x="273" y="321"/>
      <point x="268" y="356" type="curve"/>
      <point x="249" y="413"/>
      <point x="217" y="466"/>
      <point x="162" y="466" type="curve" smooth="yes"/>
      <point x="96" y="466"/>
      <point x="55" y="373"/>
      <point x="55" y="238" type="curve" smooth="yes"/>
      <point x="55" y="114"/>
      <point x="91" y="10"/>
      <point x="165" y="10" type="curve" smooth="yes"/>
      <point x="239" y="10"/>
      <point x="276" y="114"/>
    </contour>
  </outline>
</glyph>
<glyph name="oslash" format="1">
  <advance width="305"/>
  <unicode hex="00F8"/>
  <outline>
    <contour>
      <point x="71" y="50" type="line"/>
      <point x="47" y="98"/>
      <point x="36" y="172"/>
      <point x="36" y="262" type="curve" smooth="yes"/>
      <point x="36" y="424"/>
      <point x="71" y="533"/>
      <point x="152" y="533" type="curve" smooth="yes"/>
      <point x="182" y="533"/>
      <point x="205" y="519"/>
      <point x="223" y="492" type="curve"/>
      <point x="252" y="575" type="line"/>
      <point x="268" y="575" type="line"/>
      <point x="233" y="475" type="line"/>
      <point x="257" y="428"/>
      <point x="268" y="353"/>
      <point x="268" y="263" type="curve" smooth="yes"/>
      <point x="268" y="101"/>
      <point x="234" y="-8"/>
      <point x="152" y="-8" type="curve" smooth="yes"/>
      <point x="122" y="-8"/>
      <point x="99" y="7"/>
      <point x="81" y="33" type="curve"/>
      <point x="52" y="-50" type="line"/>
      <point x="36" y="-50" type="line"/>
    </contour>
    <contour>
      <point x="79" y="74" type="curve"/>
      <point x="216" y="471" type="line"/>
      <point x="200" y="500"/>
      <point x="179" y="516"/>
      <point x="152" y="516" type="curve" smooth="yes"/>
      <point x="83" y="516"/>
      <point x="54" y="415"/>
      <point x="54" y="262" type="curve" smooth="yes"/>
      <point x="54" y="183"/>
      <point x="62" y="119"/>
    </contour>
    <contour>
      <point x="225" y="451" type="curve"/>
      <point x="88" y="54" type="line"/>
      <point x="104" y="25"/>
      <point x="125" y="9"/>
      <point x="153" y="9" type="curve" smooth="yes"/>
      <point x="221" y="9"/>
      <point x="250" y="110"/>
      <point x="250" y="263" type="curve" smooth="yes"/>
      <point x="250" y="342"/>
      <point x="242" y="407"/>
    </contour>
  </outline>
</glyph>
<glyph name="Lslash" format="1">
  <advance width="242"/>
  <unicode hex="0141"/>
  <outline>
    <contour>
      <point x="231" y="0" type="line"/>
      <point x="64" y="0" type="line"/>
      <point x="64" y="285" type="line"/>
      <point x="37" y="258" type="line"/>
      <point x="37" y="281" type="line"/>
      <point x="64" y="307" type="line"/>
      <point x="64" y="700" type="line"/>
      <point x="82" y="700" type="line"/>
      <point x="82" y="322" type="line"/>
      <point x="155" y="392" type="line"/>
      <point x="155" y="370" type="line"/>
      <point x="82" y="300" type="line"/>
      <point x="82" y="17" type="line"/>
      <point x="231" y="17" type="line"/>
    </contour>
  </outline>
</glyph>
<glyph name="lslash" format="1">
  <advance width="169"/>
  <unicode hex="0142"/>
  <outline>
    <contour>
      <point x="133" y="351" type="line"/>
      <point x="93" y="311" type="line"/>
      <point x="93" y="0" type="line"/>
      <point x="75" y="0" type="line"/>
      <point x="75" y="296" type="line"/>
      <point x="37" y="258" type="line"/>
      <point x="37" y="281" type="line"/>
      <point x="75" y="319" type="line"/>
      <point x="75" y="718" type="line"/>
      <point x="93" y="729" type="line"/>
      <point x="93" y="334" type="line"/>
      <point x="133" y="373" type="line"/>
    </contour>
  </outline>
</glyph>
<glyph name="OE" format="1">
  <advance width="462"/>
  <unicode hex="0152"/>
  <outline>
    <contour>
      <point x="454" y="0" type="line"/>
      <point x="269" y="0" type="line"/>
      <point x="269" y="159" type="line"/>
      <point x="257" y="41"/>
      <point x="216" y="-8"/>
      <point x="164" y="-8" type="curve" smooth="yes"/>
      <point x="87" y="-8"/>
      <point x="43" y="86"/>
      <point x="43" y="350" type="curve" smooth="yes"/>
      <point x="43" y="614"/>
      <point x="87" y="708"/>
      <point x="164" y="708" type="curve" smooth="yes"/>
      <point x="218" y="708"/>
      <point x="257" y="656"/>
      <point x="269" y="540" type="curve"/>
      <point x="269" y="700" type="line"/>
      <point x="444" y="700" type="line"/>
      <point x="444" y="683" type="line"/>
      <point x="285" y="683" type="line"/>
      <point x="285" y="383" type="line"/>
      <point x="396" y="383" type="line"/>
      <point x="396" y="365" type="line"/>
      <point x="285" y="365" type="line"/>
      <point x="285" y="17" type="line"/>
      <point x="454" y="17" type="line"/>
    </contour>
    <contour>
      <point x="267" y="350" type="curve" smooth="yes"/>
      <point x="267" y="604"/>
      <point x="227" y="690"/>
      <point x="164" y="690" type="curve" smooth="yes"/>
      <point x="101" y="690"/>
      <point x="62" y="604"/>
      <point x="62" y="350" type="curve" smooth="yes"/>
      <point x="62" y="96"/>
      <point x="102" y="10"/>
      <point x="165" y="10" type="curve" smooth="yes"/>
      <point x="227" y="10"/>
      <point x="267" y="96"/>
    </contour>
  </outline>
</glyph>
<glyph name="oe" format="1">
  <advance width="501"/>
  <unicode hex="0153"/>
  <outline>
    <contour>
      <point x="466" y="259" type="curve"/>
      <point x="267" y="259" type="line"/>
      <point x="267" y="241"/>
      <point x="267" y="256"/>
      <point x="267" y="255" type="curve" smooth="yes"/>
      <point x="268" y="112"/>
      <point x="295" y="10"/>
      <point x="361" y="10" type="curve" smooth="yes"/>
      <point x="401" y="10"/>
      <point x="427" y="41"/>
      <point x="446" y="108" type="curve"/>
      <point x="459" y="100" type="line"/>
      <point x="441" y="28"/>
      <point x="409" y="-8"/>
      <point x="360" y="-8" type="curve" smooth="yes"/>
      <point x="299" y="-8"/>
      <point x="265" y="69"/>
      <point x="258" y="152" type="curve"/>
      <point x="250" y="69"/>
      <point x="215" y="-8"/>
      <point x="152" y="-8" type="curve" smooth="yes"/>
      <point x="71" y="-8"/>
      <point x="36" y="100"/>
      <point x="36" y="262" type="curve" smooth="yes"/>
      <point x="36" y="424"/>
      <point x="71" y="533"/>
      <point x="152" y="533" type="curve" smooth="yes"/>
      <point x="216" y="533"/>
      <point x="251" y="459"/>
      <point x="259" y="373" type="curve"/>
      <point x="266" y="457"/>
      <point x="299" y="533"/>
      <point x="361" y="533" type="curve" smooth="yes"/>
      <point x="435" y="533"/>
      <point x="466" y="419"/>
      <point x="466" y="269" type="curve" smooth="yes"/>
      <point x="466" y="266"/>
      <point x="466" y="261"/>
    </contour>
    <contour>
      <point x="447" y="275" type="line"/>
      <point x="447" y="277"/>
      <point x="447" y="281"/>
      <point x="447" y="283" type="curve" smooth="yes"/>
      <point x="446" y="409"/>
      <point x="421" y="515"/>
      <point x="360" y="515" type="curve" smooth="yes"/>
      <point x="298" y="515"/>
      <point x="269" y="419"/>
      <point x="268" y="275" type="curve"/>
    </contour>
    <contour>
      <point x="250" y="263" type="curve" smooth="yes"/>
      <point x="250" y="415"/>
      <point x="221" y="515"/>
      <point x="152" y="515" type="curve" smooth="yes"/>
      <point x="83" y="515"/>
      <point x="55" y="414"/>
      <point x="55" y="262" type="curve" smooth="yes"/>
      <point x="55" y="110"/>
      <point x="84" y="10"/>
      <point x="153" y="10" type="curve" smooth="yes"/>
      <point x="221" y="10"/>
      <point x="250" y="111"/>
    </contour>
  </outline>
</glyph>
<glyph name="florin" format="1">
  <advance width="187"/>
  <unicode hex="0192"/>
  <outline>
    <contour>
      <point x="67" y="-187" type="line"/>
      <point x="67" y="493" type="line"/>
      <point x="19" y="493" type="line"/>
      <point x="19" y="509" type="line"/>
      <point x="67" y="509" type="line"/>
      <point x="67" y="613" type="line" smooth="yes"/>
      <point x="67" y="679"/>
      <point x="97" y="706"/>
      <point x="141" y="706" type="curve" smooth="yes"/>
      <point x="157" y="706"/>
      <point x="168" y="705"/>
      <point x="181" y="701" type="curve"/>
      <point x="180" y="684" type="line"/>
      <point x="168" y="688"/>
      <point x="157" y="690"/>
      <point x="142" y="690" type="curve" smooth="yes"/>
      <point x="109" y="690"/>
      <point x="85" y="668"/>
      <point x="85" y="614" type="curve" smooth="yes"/>
      <point x="85" y="509" type="line"/>
      <point x="167" y="509" type="line"/>
      <point x="167" y="493" type="line"/>
      <point x="85" y="493" type="line"/>
      <point x="85" y="-176" type="line"/>
    </contour>
  </outline>
</glyph>
<glyph name="circumflex" format="1">
  <advance width="316"/>
  <unicode hex="02C6"/>
  <outline>
    <contour>
      <point x="254" y="600" type="line"/>
      <point x="238" y="600" type="line"/>
      <point x="158" y="742" type="line"/>
      <point x="78" y="600" type="line"/>
      <point x="62" y="600" type="line"/>
      <point x="150" y="760" type="line"/>
      <point x="166" y="760" type="line"/>
    </contour>
  </outline>
</glyph>
<glyph name="caron" format="1">
  <advance width="316"/>
  <unicode hex="02C7"/>
  <outline>
    <contour>
      <point x="254" y="760" type="line"/>
      <point x="166" y="600" type="line"/>
      <point x="150" y="600" type="line"/>
      <point x="62" y="760" type="line"/>
      <point x="79" y="760" type="line"/>
      <point x="158" y="618" type="line"/>
      <point x="238" y="760" type="line"/>
    </contour>
  </outline>
</glyph>
<glyph name="breve" format="1">
  <advance width="316"/>
  <unicode hex="02D8"/>
  <outline>
    <contour>
      <point x="242" y="731" type="line"/>
      <point x="241" y="655"/>
      <point x="207" y="600"/>
      <point x="146" y="600" type="curve" smooth="yes"/>
      <point x="86" y="600"/>
      <point x="52" y="655"/>
      <point x="51" y="731" type="curve"/>
      <point x="67" y="731" type="line"/>
      <point x="69" y="663"/>
      <point x="96" y="616"/>
      <point x="146" y="616" type="curve" smooth="yes"/>
      <point x="196" y="616"/>
      <point x="224" y="662"/>
      <point x="226" y="731" type="curve"/>
    </contour>
  </outline>
</glyph>
<glyph name="dotaccent" format="1">
  <advance width="316"/>
  <unicode hex="02D9"/>
  <outline>
    <contour>
      <point x="158" y="623" type="curve" smooth="yes"/>
      <point x="145" y="623"/>
      <point x="135" y="633"/>
      <point x="135" y="646" type="curve" smooth="yes"/>
      <point x="135" y="659"/>
      <point x="145" y="670"/>
      <point x="158" y="670" type="curve" smooth="yes"/>
      <point x="171" y="670"/>
      <point x="181" y="659"/>
      <point x="181" y="646" type="curve" smooth="yes"/>
      <point x="181" y="633"/>
      <point x="171" y="623"/>
    </contour>
  </outline>
</glyph>
<glyph name="ring" format="1">
  <advance width="316"/>
  <unicode hex="02DA"/>
  <outline>
    <contour>
      <point x="236" y="678" type="curve" smooth="yes"/>
      <point x="236" y="635"/>
      <point x="202" y="600"/>
      <point x="158" y="600" type="curve" smooth="yes"/>
      <point x="115" y="600"/>
      <point x="81" y="635"/>
      <point x="81" y="678" type="curve" smooth="yes"/>
      <point x="81" y="721"/>
      <point x="115" y="755"/>
      <point x="158" y="755" type="curve" smooth="yes"/>
      <point x="202" y="755"/>
      <point x="236" y="721"/>
    </contour>
    <contour>
      <point x="222" y="678" type="curve" smooth="yes"/>
      <point x="222" y="714"/>
      <point x="194" y="742"/>
      <point x="158" y="742" type="curve" smooth="yes"/>
      <point x="122" y="742"/>
      <point x="95" y="714"/>
      <point x="95" y="678" type="curve" smooth="yes"/>
      <point x="95" y="642"/>
      <point x="122" y="614"/>
      <point x="158" y="614" type="curve" smooth="yes"/>
      <point x="194" y="614"/>
      <point x="222" y="642"/>
    </contour>
  </outline>
</glyph>
<glyph name="ogonek" format="1">
  <advance width="316"/>
  <unicode hex="02DB"/>
  <outline>
    <contour>
      <point x="173" y="-192" type="curve" smooth="yes"/>
      <point x="136" y="-192"/>
      <point x="107" y="-164"/>
      <point x="107" y="-122" type="curve" smooth="yes"/>
      <point x="107" y="-69"/>
      <point x="150" y="-13"/>
      <point x="166" y="0" type="curve"/>
      <point x="181" y="0" type="line"/>
      <point x="152" y="-31"/>
      <point x="125" y="-75"/>
      <point x="125" y="-119" type="curve" smooth="yes"/>
      <point x="125" y="-153"/>
      <point x="146" y="-176"/>
      <point x="175" y="-176" type="curve" smooth="yes"/>
      <point x="201" y="-176"/>
      <point x="225" y="-160"/>
      <point x="243" y="-140" type="curve"/>
      <point x="253" y="-151" type="line"/>
      <point x="233" y="-172"/>
      <point x="207" y="-192"/>
    </contour>
  </outline>
</glyph>
<glyph name="tilde" format="1">
  <advance width="304"/>
  <unicode hex="02DC"/>
  <outline>
    <contour>
      <point x="200" y="607" type="curve" smooth="yes"/>
      <point x="180" y="607"/>
      <point x="167" y="620"/>
      <point x="148" y="647" type="curve" smooth="yes"/>
      <point x="130" y="671"/>
      <point x="120" y="691"/>
      <point x="102" y="691" type="curve" smooth="yes"/>
      <point x="82" y="691"/>
      <point x="66" y="663"/>
      <point x="65" y="610" type="curve"/>
      <point x="49" y="610" type="line"/>
      <point x="49" y="672"/>
      <point x="73" y="707"/>
      <point x="101" y="707" type="curve" smooth="yes"/>
      <point x="121" y="707"/>
      <point x="131" y="699"/>
      <point x="153" y="668" type="curve" smooth="yes"/>
      <point x="170" y="644"/>
      <point x="182" y="623"/>
      <point x="200" y="623" type="curve" smooth="yes"/>
      <point x="220" y="623"/>
      <point x="238" y="653"/>
      <point x="239" y="706" type="curve"/>
      <point x="255" y="706" type="line"/>
      <point x="255" y="643"/>
      <point x="230" y="607"/>
    </contour>
  </outline>
</glyph>
<glyph name="hungarumlaut" format="1">
  <advance width="316"/>
  <unicode hex="02DD"/>
  <outline>
    <contour>
      <point x="258" y="760" type="line"/>
      <point x="170" y="600" type="line"/>
      <point x="157" y="600" type="line"/>
      <point x="235" y="760" type="line"/>
    </contour>
    <contour>
      <point x="163" y="760" type="line"/>
      <point x="75" y="600" type="line"/>
      <point x="62" y="600" type="line"/>
      <point x="140" y="760" type="line"/>
    </contour>
  </outline>
</glyph>
<glyph name="endash" format="1">
  <advance width="252"/>
  <unicode hex="2013"/>
  <outline>
    <contour>
      <point x="227" y="355" type="line"/>
      <point x="25" y="355" type="line"/>
      <point x="25" y="373" type="line"/>
      <point x="227" y="373" type="line"/>
    </contour>
  </outline>
</glyph>
<glyph name="emdash" format="1">
  <advance width="362"/>
  <unicode hex="2014"/>
  <outline>
    <contour>
      <point x="337" y="355" type="line"/>
      <point x="25" y="355" type="line"/>
      <point x="25" y="373" type="line"/>
      <point x="337" y="373" type="line"/>
    </contour>
  </outline>
</glyph>
<glyph name="quoteleft" format="1">
  <advance width="86"/>
  <unicode hex="2018"/>
  <unicode hex="02BB"/>
  <outline>
    <contour>
      <point x="62" y="700" type="line"/>
      <point x="44" y="546" type="line"/>
      <point x="23" y="546" type="line"/>
      <point x="50" y="700" type="line"/>
    </contour>
  </outline>
</glyph>
<glyph name="quoteright" format="1">
  <advance width="86"/>
  <unicode hex="2019"/>
  <unicode hex="02BC"/>
  <outline>
    <contour>
      <point x="63" y="700" type="line"/>
      <point x="37" y="546" type="line"/>
      <point x="25" y="546" type="line"/>
      <point x="43" y="700" type="line"/>
    </contour>
  </outline>
</glyph>
<glyph name="quotesinglbase" format="1">
  <advance width="86"/>
  <unicode hex="201A"/>
  <outline>
    <contour>
      <point x="57" y="63" type="line"/>
      <point x="30" y="-91" type="line"/>
      <point x="18" y="-91" type="line"/>
      <point x="36" y="63" type="line"/>
    </contour>
  </outline>
</glyph>
<glyph name="quotedblleft" format="1">
  <advance width="174"/>
  <unicode hex="201C"/>
  <outline>
    <contour>
      <point x="150" y="700" type="line"/>
      <point x="131" y="546" type="line"/>
      <point x="111" y="546" type="line"/>
      <point x="138" y="700" type="line"/>
    </contour>
    <contour>
      <point x="62" y="700" type="line"/>
      <point x="44" y="546" type="line"/>
      <point x="23" y="546" type="line"/>
      <point x="50" y="700" type="line"/>
    </contour>
  </outline>
</glyph>
<glyph name="quotedblright" format="1">
  <advance width="174"/>
  <unicode hex="201D"/>
  <outline>
    <contour>
      <point x="151" y="700" type="line"/>
      <point x="124" y="546" type="line"/>
      <point x="112" y="546" type="line"/>
      <point x="131" y="700" type="line"/>
    </contour>
    <contour>
      <point x="63" y="700" type="line"/>
      <point x="37" y="546" type="line"/>
      <point x="25" y="546" type="line"/>
      <point x="43" y="700" type="line"/>
    </contour>
  </outline>
</glyph>
<glyph name="quotedblbase" format="1">
  <advance width="230"/>
  <unicode hex="201E"/>
  <outline>
    <contour>
      <point x="201" y="63" type="line"/>
      <point x="174" y="-91" type="line"/>
      <point x="162" y="-91" type="line"/>
      <point x="181" y="63" type="line"/>
    </contour>
    <contour>
      <point x="57" y="63" type="line"/>
      <point x="30" y="-91" type="line"/>
      <point x="18" y="-91" type="line"/>
      <point x="36" y="63" type="line"/>
    </contour>
  </outline>
</glyph>
<glyph name="dagger" format="1">
  <advance width="270"/>
  <unicode hex="2020"/>
  <outline>
    <contour>
      <point x="256" y="423" type="line"/>
      <point x="143" y="423" type="line"/>
      <point x="143" y="-100" type="line"/>
      <point x="126" y="-100" type="line"/>
      <point x="126" y="423" type="line"/>
      <point x="13" y="423" type="line"/>
      <point x="13" y="439" type="line"/>
      <point x="126" y="439" type="line"/>
      <point x="126" y="700" type="line"/>
      <point x="143" y="700" type="line"/>
      <point x="143" y="439" type="line"/>
      <point x="256" y="439" type="line"/>
    </contour>
  </outline>
</glyph>
<glyph name="daggerdbl" format="1">
  <advance width="270"/>
  <unicode hex="2021"/>
  <outline>
    <contour>
      <point x="253" y="160" type="line"/>
      <point x="143" y="160" type="line"/>
      <point x="143" y="-100" type="line"/>
      <point x="126" y="-100" type="line"/>
      <point x="126" y="160" type="line"/>
      <point x="17" y="160" type="line"/>
      <point x="17" y="176" type="line"/>
      <point x="126" y="176" type="line"/>
      <point x="126" y="423" type="line"/>
      <point x="17" y="423" type="line"/>
      <point x="17" y="439" type="line"/>
      <point x="126" y="439" type="line"/>
      <point x="126" y="700" type="line"/>
      <point x="143" y="700" type="line"/>
      <point x="143" y="439" type="line"/>
      <point x="253" y="439" type="line"/>
      <point x="253" y="423" type="line"/>
      <point x="143" y="423" type="line"/>
      <point x="143" y="176" type="line"/>
      <point x="253" y="176" type="line"/>
    </contour>
  </outline>
</glyph>
<glyph name="ellipsis" format="1">
  <advance width="269"/>
  <unicode hex="2026"/>
  <outline>
    <contour>
      <point x="227" y="-4" type="curve" smooth="yes"/>
      <point x="214" y="-4"/>
      <point x="204" y="6"/>
      <point x="204" y="19" type="curve" smooth="yes"/>
      <point x="204" y="32"/>
      <point x="214" y="43"/>
      <point x="227" y="43" type="curve" smooth="yes"/>
      <point x="240" y="43"/>
      <point x="250" y="32"/>
      <point x="250" y="19" type="curve" smooth="yes"/>
      <point x="250" y="6"/>
      <point x="240" y="-4"/>
    </contour>
    <contour>
      <point x="134" y="-4" type="curve" smooth="yes"/>
      <point x="121" y="-4"/>
      <point x="111" y="6"/>
      <point x="111" y="19" type="curve" smooth="yes"/>
      <point x="111" y="32"/>
      <point x="121" y="43"/>
      <point x="134" y="43" type="curve" smooth="yes"/>
      <point x="147" y="43"/>
      <point x="157" y="32"/>
      <point x="157" y="19" type="curve" smooth="yes"/>
      <point x="157" y="6"/>
      <point x="147" y="-4"/>
    </contour>
    <contour>
      <point x="42" y="-4" type="curve" smooth="yes"/>
      <point x="29" y="-4"/>
      <point x="19" y="6"/>
      <point x="19" y="19" type="curve" smooth="yes"/>
      <point x="19" y="32"/>
      <point x="29" y="43"/>
      <point x="42" y="43" type="curve" smooth="yes"/>
      <point x="55" y="43"/>
      <point x="65" y="32"/>
      <point x="65" y="19" type="curve" smooth="yes"/>
      <point x="65" y="6"/>
      <point x="55" y="-4"/>
    </contour>
  </outline>
</glyph>
<glyph name="perthousand" format="1">
  <advance width="669"/>
  <unicode hex="2030"/>
  <outline>
    <contour>
      <point x="192" y="517" type="curve" smooth="yes"/>
      <point x="192" y="393"/>
      <point x="159" y="323"/>
      <point x="109" y="323" type="curve" smooth="yes"/>
      <point x="59" y="323"/>
      <point x="28" y="391"/>
      <point x="28" y="515" type="curve" smooth="yes"/>
      <point x="28" y="638"/>
      <point x="61" y="708"/>
      <point x="111" y="708" type="curve" smooth="yes"/>
      <point x="161" y="708"/>
      <point x="192" y="640"/>
    </contour>
    <contour>
      <point x="385" y="700" type="line"/>
      <point x="94" y="0" type="line"/>
      <point x="76" y="0" type="line"/>
      <point x="367" y="700" type="line"/>
    </contour>
    <contour>
      <point x="645" y="185" type="curve" smooth="yes"/>
      <point x="645" y="62"/>
      <point x="612" y="-8"/>
      <point x="562" y="-8" type="curve" smooth="yes"/>
      <point x="513" y="-8"/>
      <point x="482" y="60"/>
      <point x="482" y="183" type="curve" smooth="yes"/>
      <point x="482" y="307"/>
      <point x="515" y="377"/>
      <point x="564" y="377" type="curve" smooth="yes"/>
      <point x="614" y="377"/>
      <point x="645" y="309"/>
    </contour>
    <contour>
      <point x="433" y="185" type="curve" smooth="yes"/>
      <point x="433" y="62"/>
      <point x="400" y="-8"/>
      <point x="350" y="-8" type="curve" smooth="yes"/>
      <point x="300" y="-8"/>
      <point x="269" y="60"/>
      <point x="269" y="183" type="curve" smooth="yes"/>
      <point x="269" y="307"/>
      <point x="302" y="377"/>
      <point x="352" y="377" type="curve" smooth="yes"/>
      <point x="402" y="377"/>
      <point x="433" y="309"/>
    </contour>
    <contour>
      <point x="175" y="516" type="curve" smooth="yes"/>
      <point x="175" y="628"/>
      <point x="150" y="691"/>
      <point x="111" y="691" type="curve" smooth="yes"/>
      <point x="71" y="691"/>
      <point x="45" y="627"/>
      <point x="45" y="515" type="curve" smooth="yes"/>
      <point x="45" y="404"/>
      <point x="70" y="340"/>
      <point x="110" y="340" type="curve" smooth="yes"/>
      <point x="149" y="340"/>
      <point x="175" y="405"/>
    </contour>
    <contour>
      <point x="628" y="185" type="curve" smooth="yes"/>
      <point x="628" y="296"/>
      <point x="604" y="360"/>
      <point x="564" y="360" type="curve" smooth="yes"/>
      <point x="524" y="360"/>
      <point x="499" y="295"/>
      <point x="499" y="184" type="curve" smooth="yes"/>
      <point x="499" y="72"/>
      <point x="523" y="9"/>
      <point x="563" y="9" type="curve" smooth="yes"/>
      <point x="603" y="9"/>
      <point x="628" y="73"/>
    </contour>
    <contour>
      <point x="416" y="185" type="curve" smooth="yes"/>
      <point x="416" y="296"/>
      <point x="391" y="360"/>
      <point x="352" y="360" type="curve" smooth="yes"/>
      <point x="312" y="360"/>
      <point x="286" y="295"/>
      <point x="286" y="184" type="curve" smooth="yes"/>
      <point x="286" y="72"/>
      <point x="311" y="9"/>
      <point x="351" y="9" type="curve" smooth="yes"/>
      <point x="390" y="9"/>
      <point x="416" y="73"/>
    </contour>
  </outline>
</glyph>
<glyph name="guilsinglleft" format="1">
  <advance width="193"/>
  <unicode hex="2039"/>
  <outline>
    <contour>
      <point x="164" y="0" type="line"/>
      <point x="144" y="0" type="line"/>
      <point x="19" y="262" type="line"/>
      <point x="144" y="525" type="line"/>
      <point x="164" y="525" type="line"/>
      <point x="38" y="262" type="line"/>
    </contour>
  </outline>
</glyph>
<glyph name="guilsinglright" format="1">
  <advance width="193"/>
  <unicode hex="203A"/>
  <outline>
    <contour>
      <point x="50" y="0" type="line"/>
      <point x="30" y="0" type="line"/>
      <point x="155" y="262" type="line"/>
      <point x="30" y="525" type="line"/>
      <point x="50" y="525" type="line"/>
      <point x="174" y="262" type="line"/>
    </contour>
  </outline>
</glyph>
<glyph name="Euro" format="1">
  <advance width="301"/>
  <unicode hex="20AC"/>
  <outline>
    <contour>
      <point x="62" y="422" type="curve"/>
      <point x="175" y="422" type="line"/>
      <point x="175" y="405" type="line"/>
      <point x="62" y="405" type="line"/>
      <point x="61" y="388"/>
      <point x="61" y="369"/>
      <point x="61" y="350" type="curve" smooth="yes"/>
      <point x="61" y="333"/>
      <point x="61" y="316"/>
      <point x="62" y="300" type="curve"/>
      <point x="175" y="300" type="line"/>
      <point x="175" y="283" type="line"/>
      <point x="62" y="283" type="line"/>
      <point x="69" y="81"/>
      <point x="107" y="10"/>
      <point x="161" y="10" type="curve" smooth="yes"/>
      <point x="202" y="10"/>
      <point x="229" y="49"/>
      <point x="248" y="166" type="curve"/>
      <point x="266" y="161" type="line"/>
      <point x="247" y="39"/>
      <point x="214" y="-8"/>
      <point x="160" y="-8" type="curve" smooth="yes"/>
      <point x="86" y="-8"/>
      <point x="42" y="86"/>
      <point x="42" y="350" type="curve" smooth="yes"/>
      <point x="42" y="613"/>
      <point x="87" y="708"/>
      <point x="160" y="708" type="curve" smooth="yes"/>
      <point x="214" y="708"/>
      <point x="246" y="662"/>
      <point x="265" y="537" type="curve"/>
      <point x="247" y="533" type="line"/>
      <point x="227" y="653"/>
      <point x="200" y="690"/>
      <point x="160" y="690" type="curve" smooth="yes"/>
      <point x="108" y="690"/>
      <point x="69" y="621"/>
    </contour>
  </outline>
</glyph>
<glyph name="uni2117" format="1">
  <advance width="448"/>
  <unicode hex="2117"/>
  <outline>
    <contour>
      <point x="224" y="-9" type="curve" smooth="yes"/>
      <point x="100" y="-9"/>
      <point x="37" y="149"/>
      <point x="37" y="352" type="curve" smooth="yes"/>
      <point x="37" y="554"/>
      <point x="100" y="712"/>
      <point x="224" y="712" type="curve" smooth="yes"/>
      <point x="348" y="712"/>
      <point x="411" y="554"/>
      <point x="411" y="352" type="curve" smooth="yes"/>
      <point x="411" y="149"/>
      <point x="348" y="-9"/>
    </contour>
    <contour>
      <point x="224" y="5" type="curve" smooth="yes"/>
      <point x="340" y="5"/>
      <point x="397" y="157"/>
      <point x="397" y="352" type="curve" smooth="yes"/>
      <point x="397" y="546"/>
      <point x="340" y="698"/>
      <point x="224" y="698" type="curve" smooth="yes"/>
      <point x="107" y="698"/>
      <point x="51" y="546"/>
      <point x="51" y="352" type="curve" smooth="yes"/>
      <point x="51" y="157"/>
      <point x="107" y="5"/>
    </contour>
    <contour>
      <point x="177" y="151" type="line"/>
      <point x="177" y="544" type="line"/>
      <point x="209" y="544" type="line" smooth="yes"/>
      <point x="262" y="544"/>
      <point x="298" y="521"/>
      <point x="298" y="447" type="curve" smooth="yes"/>
      <point x="298" y="372"/>
      <point x="261" y="345"/>
      <point x="208" y="345" type="curve" smooth="yes"/>
      <point x="191" y="345" type="line"/>
      <point x="191" y="151" type="line"/>
    </contour>
    <contour>
      <point x="191" y="358" type="line"/>
      <point x="209" y="358" type="line" smooth="yes"/>
      <point x="256" y="358"/>
      <point x="284" y="383"/>
      <point x="284" y="447" type="curve" smooth="yes"/>
      <point x="284" y="511"/>
      <point x="255" y="530"/>
      <point x="209" y="530" type="curve" smooth="yes"/>
      <point x="191" y="530" type="line"/>
    </contour>
  </outline>
</glyph>
<glyph name="trademark" format="1">
  <advance width="390"/>
  <unicode hex="2122"/>
  <outline>
    <contour>
      <point x="148" y="688" type="line"/>
      <point x="84" y="688" type="line"/>
      <point x="84" y="310" type="line"/>
      <point x="71" y="310" type="line"/>
      <point x="71" y="688" type="line"/>
      <point x="5" y="688" type="line"/>
      <point x="5" y="700" type="line"/>
      <point x="148" y="700" type="line"/>
    </contour>
    <contour>
      <point x="362" y="310" type="line"/>
      <point x="350" y="310" type="line"/>
      <point x="350" y="310"/>
      <point x="350" y="657"/>
      <point x="350" y="661" type="curve"/>
      <point x="350" y="658"/>
      <point x="279" y="306"/>
      <point x="279" y="306" type="curve"/>
      <point x="274" y="306" type="line"/>
      <point x="274" y="306"/>
      <point x="203" y="657"/>
      <point x="203" y="660" type="curve"/>
      <point x="203" y="657"/>
      <point x="203" y="310"/>
      <point x="203" y="310" type="curve"/>
      <point x="191" y="310" type="line"/>
      <point x="191" y="700" type="line"/>
      <point x="207" y="700" type="line"/>
      <point x="207" y="700"/>
      <point x="276" y="353"/>
      <point x="277" y="348" type="curve"/>
      <point x="277" y="353"/>
      <point x="346" y="700"/>
      <point x="346" y="700" type="curve"/>
      <point x="362" y="700" type="line"/>
    </contour>
  </outline>
</glyph>
<glyph name="arrowleft" format="1">
  <advance width="262"/>
  <unicode hex="2190"/>
  <outline>
    <contour>
      <point x="248" y="341" type="line"/>
      <point x="47" y="341" type="line"/>
      <point x="125" y="266" type="line"/>
      <point x="122" y="262" type="line"/>
      <point x="12" y="349" type="line"/>
      <point x="122" y="436" type="line"/>
      <point x="125" y="431" type="line"/>
      <point x="47" y="357" type="line"/>
      <point x="248" y="357" type="line"/>
    </contour>
  </outline>
</glyph>
<glyph name="arrowup" format="1">
  <advance width="252"/>
  <unicode hex="2191"/>
  <outline>
    <contour>
      <point x="118" y="0" type="line"/>
      <point x="118" y="675" type="line"/>
      <point x="43" y="597" type="line"/>
      <point x="39" y="600" type="line"/>
      <point x="126" y="710" type="line"/>
      <point x="213" y="600" type="line"/>
      <point x="209" y="597" type="line"/>
      <point x="135" y="675" type="line"/>
      <point x="135" y="0" type="line"/>
    </contour>
  </outline>
</glyph>
<glyph name="arrowright" format="1">
  <advance width="262"/>
  <unicode hex="2192"/>
  <outline>
    <contour>
      <point x="250" y="349" type="line"/>
      <point x="140" y="262" type="line"/>
      <point x="137" y="266" type="line"/>
      <point x="215" y="341" type="line"/>
      <point x="14" y="341" type="line"/>
      <point x="14" y="357" type="line"/>
      <point x="215" y="357" type="line"/>
      <point x="137" y="431" type="line"/>
      <point x="140" y="436" type="line"/>
    </contour>
  </outline>
</glyph>
<glyph name="arrowdown" format="1">
  <advance width="252"/>
  <unicode hex="2193"/>
  <outline>
    <contour>
      <point x="213" y="100" type="line"/>
      <point x="126" y="-10" type="line"/>
      <point x="39" y="100" type="line"/>
      <point x="43" y="103" type="line"/>
      <point x="118" y="25" type="line"/>
      <point x="118" y="705" type="line"/>
      <point x="135" y="705" type="line"/>
      <point x="135" y="25" type="line"/>
      <point x="209" y="103" type="line"/>
    </contour>
  </outline>
</glyph>
<glyph name="arrowboth" format="1">
  <advance width="446"/>
  <unicode hex="2194"/>
  <outline>
    <contour>
      <point x="435" y="349" type="line"/>
      <point x="324" y="262" type="line"/>
      <point x="321" y="266" type="line"/>
      <point x="399" y="341" type="line"/>
      <point x="47" y="341" type="line"/>
      <point x="125" y="266" type="line"/>
      <point x="122" y="262" type="line"/>
      <point x="12" y="349" type="line"/>
      <point x="122" y="436" type="line"/>
      <point x="125" y="431" type="line"/>
      <point x="47" y="357" type="line"/>
      <point x="399" y="357" type="line"/>
      <point x="321" y="431" type="line"/>
      <point x="324" y="436" type="line"/>
    </contour>
  </outline>
</glyph>
<glyph name="radical" format="1">
  <advance width="299"/>
  <unicode hex="221A"/>
  <outline>
    <contour>
      <point x="289" y="700" type="line"/>
      <point x="148" y="-4" type="line"/>
      <point x="126" y="-4" type="line"/>
      <point x="15" y="339" type="line"/>
      <point x="34" y="339" type="line"/>
      <point x="136" y="24" type="line"/>
      <point x="271" y="700" type="line"/>
    </contour>
  </outline>
</glyph>
<glyph name="apple" format="1">
  <advance width="446"/>
  <unicode hex="F8FF"/>
  <outline>
    <contour>
      <point x="435" y="349" type="line"/>
      <point x="324" y="262" type="line"/>
      <point x="321" y="266" type="line"/>
      <point x="399" y="341" type="line"/>
      <point x="231" y="341" type="line"/>
      <point x="231" y="25" type="line"/>
      <point x="306" y="103" type="line"/>
      <point x="310" y="100" type="line"/>
      <point x="223" y="-10" type="line"/>
      <point x="136" y="100" type="line"/>
      <point x="140" y="103" type="line"/>
      <point x="215" y="25" type="line"/>
      <point x="215" y="341" type="line"/>
      <point x="47" y="341" type="line"/>
      <point x="125" y="266" type="line"/>
      <point x="122" y="262" type="line"/>
      <point x="12" y="349" type="line"/>
      <point x="122" y="436" type="line"/>
      <point x="125" y="431" type="line"/>
      <point x="47" y="357" type="line"/>
      <point x="215" y="357" type="line"/>
      <point x="215" y="675" type="line"/>
      <point x="140" y="597" type="line"/>
      <point x="136" y="600" type="line"/>
      <point x="223" y="710" type="line"/>
      <point x="310" y="600" type="line"/>
      <point x="306" y="597" type="line"/>
      <point x="231" y="675" type="line"/>
      <point x="231" y="357" type="line"/>
      <point x="399" y="357" type="line"/>
      <point x="321" y="431" type="line"/>
      <point x="324" y="436" type="line"/>
    </contour>
  </outline>
</glyph>
<glyph name="fi" format="1">
  <advance width="298"/>
  <unicode hex="FB01"/>
  <outline>
    <contour>
      <point x="234" y="656" type="curve" smooth="yes"/>
      <point x="221" y="656"/>
      <point x="211" y="666"/>
      <point x="211" y="679" type="curve" smooth="yes"/>
      <point x="211" y="692"/>
      <point x="221" y="703"/>
      <point x="234" y="703" type="curve" smooth="yes"/>
      <point x="247" y="703"/>
      <point x="257" y="692"/>
      <point x="257" y="679" type="curve" smooth="yes"/>
      <point x="257" y="666"/>
      <point x="247" y="656"/>
    </contour>
    <contour>
      <point x="166" y="702" type="line"/>
      <point x="154" y="707"/>
      <point x="145" y="709"/>
      <point x="131" y="709" type="curve" smooth="yes"/>
      <point x="100" y="709"/>
      <point x="78" y="688"/>
      <point x="78" y="639" type="curve" smooth="yes"/>
      <point x="78" y="525" type="line"/>
      <point x="151" y="525" type="line"/>
      <point x="151" y="509" type="line"/>
      <point x="78" y="509" type="line"/>
      <point x="78" y="0" type="line"/>
      <point x="61" y="0" type="line"/>
      <point x="61" y="509" type="line"/>
      <point x="13" y="509" type="line"/>
      <point x="13" y="525" type="line"/>
      <point x="61" y="525" type="line"/>
      <point x="61" y="638" type="line" smooth="yes"/>
      <point x="61" y="700"/>
      <point x="89" y="726"/>
      <point x="129" y="726" type="curve" smooth="yes"/>
      <point x="145" y="726"/>
      <point x="153" y="725"/>
      <point x="166" y="720" type="curve"/>
    </contour>
    <contour>
      <point x="243" y="0" type="line"/>
      <point x="225" y="0" type="line"/>
      <point x="225" y="525" type="line"/>
      <point x="243" y="525" type="line"/>
    </contour>
  </outline>
</glyph>
<glyph name="fl" format="1">
  <advance width="298"/>
  <unicode hex="FB02"/>
  <outline>
    <contour>
      <point x="243" y="0" type="line"/>
      <point x="225" y="0" type="line"/>
      <point x="225" y="718" type="line"/>
      <point x="243" y="729" type="line"/>
    </contour>
    <contour>
      <point x="166" y="702" type="line"/>
      <point x="154" y="707"/>
      <point x="145" y="709"/>
      <point x="131" y="709" type="curve" smooth="yes"/>
      <point x="100" y="709"/>
      <point x="78" y="688"/>
      <point x="78" y="639" type="curve" smooth="yes"/>
      <point x="78" y="525" type="line"/>
      <point x="151" y="525" type="line"/>
      <point x="151" y="509" type="line"/>
      <point x="78" y="509" type="line"/>
      <point x="78" y="0" type="line"/>
      <point x="61" y="0" type="line"/>
      <point x="61" y="509" type="line"/>
      <point x="13" y="509" type="line"/>
      <point x="13" y="525" type="line"/>
      <point x="61" y="525" type="line"/>
      <point x="61" y="638" type="line" smooth="yes"/>
      <point x="61" y="700"/>
      <point x="89" y="726"/>
      <point x="129" y="726" type="curve" smooth="yes"/>
      <point x="145" y="726"/>
      <point x="153" y="725"/>
      <point x="166" y="720" type="curve"/>
    </contour>
  </outline>
</glyph>
<glyph name="a.salt" format="1">
  <advance width="295"/>
  <outline>
    <contour>
      <point x="246" y="0" type="line"/>
      <point x="228" y="0" type="line"/>
      <point x="228" y="45" type="line"/>
      <point x="203" y="12"/>
      <point x="175" y="-8"/>
      <point x="140" y="-8" type="curve" smooth="yes"/>
      <point x="75" y="-8"/>
      <point x="36" y="63"/>
      <point x="36" y="262" type="curve" smooth="yes"/>
      <point x="36" y="463"/>
      <point x="76" y="533"/>
      <point x="141" y="533" type="curve" smooth="yes"/>
      <point x="176" y="533"/>
      <point x="203" y="513"/>
      <point x="228" y="481" type="curve"/>
      <point x="228" y="525" type="line"/>
      <point x="246" y="525" type="line"/>
    </contour>
    <contour>
      <point x="228" y="63" type="curve"/>
      <point x="228" y="462" type="line"/>
      <point x="203" y="496"/>
      <point x="175" y="516"/>
      <point x="142" y="516" type="curve" smooth="yes"/>
      <point x="89" y="516"/>
      <point x="55" y="448"/>
      <point x="55" y="262" type="curve" smooth="yes"/>
      <point x="55" y="71"/>
      <point x="90" y="9"/>
      <point x="143" y="9" type="curve" smooth="yes"/>
      <point x="176" y="9"/>
      <point x="204" y="29"/>
    </contour>
  </outline>
</glyph>
<glyph name="bullet" format="1">
  <advance width="185"/>
  <outline>
    <contour>
      <point x="131" y="366" type="curve" smooth="yes"/>
      <point x="131" y="345"/>
      <point x="114" y="327"/>
      <point x="93" y="327" type="curve" smooth="yes"/>
      <point x="71" y="327"/>
      <point x="54" y="345"/>
      <point x="54" y="366" type="curve" smooth="yes"/>
      <point x="54" y="387"/>
      <point x="71" y="406"/>
      <point x="93" y="406" type="curve" smooth="yes"/>
      <point x="114" y="406"/>
      <point x="131" y="387"/>
    </contour>
  </outline>
</glyph>
<glyph name="macron" format="1">
  <advance width="316"/>
  <outline>
    <contour>
      <point x="263" y="635" type="line"/>
      <point x="54" y="635" type="line"/>
      <point x="54" y="651" type="line"/>
      <point x="263" y="651" type="line"/>
    </contour>
  </outline>
</glyph>
<glyph name="registered" format="1">
  <advance width="448"/>
  <outline>
    <contour>
      <point x="224" y="-9" type="curve" smooth="yes"/>
      <point x="100" y="-9"/>
      <point x="37" y="149"/>
      <point x="37" y="352" type="curve" smooth="yes"/>
      <point x="37" y="554"/>
      <point x="100" y="712"/>
      <point x="224" y="712" type="curve" smooth="yes"/>
      <point x="348" y="712"/>
      <point x="411" y="554"/>
      <point x="411" y="352" type="curve" smooth="yes"/>
      <point x="411" y="149"/>
      <point x="348" y="-9"/>
    </contour>
    <contour>
      <point x="224" y="5" type="curve" smooth="yes"/>
      <point x="340" y="5"/>
      <point x="397" y="157"/>
      <point x="397" y="352" type="curve" smooth="yes"/>
      <point x="397" y="546"/>
      <point x="340" y="698"/>
      <point x="224" y="698" type="curve" smooth="yes"/>
      <point x="107" y="698"/>
      <point x="51" y="546"/>
      <point x="51" y="352" type="curve" smooth="yes"/>
      <point x="51" y="157"/>
      <point x="107" y="5"/>
    </contour>
    <contour>
      <point x="169" y="163" type="line"/>
      <point x="169" y="556" type="line"/>
      <point x="201" y="556" type="line" smooth="yes"/>
      <point x="255" y="556"/>
      <point x="291" y="533"/>
      <point x="291" y="460" type="curve" smooth="yes"/>
      <point x="291" y="405"/>
      <point x="271" y="376"/>
      <point x="239" y="365" type="curve"/>
      <point x="296" y="162" type="line"/>
      <point x="281" y="162" type="line"/>
      <point x="225" y="360" type="line"/>
      <point x="218" y="359"/>
      <point x="209" y="358"/>
      <point x="199" y="358" type="curve" smooth="yes"/>
      <point x="184" y="358" type="line"/>
      <point x="184" y="163" type="line"/>
    </contour>
    <contour>
      <point x="184" y="371" type="line"/>
      <point x="202" y="371" type="line" smooth="yes"/>
      <point x="248" y="371"/>
      <point x="276" y="396"/>
      <point x="276" y="459" type="curve" smooth="yes"/>
      <point x="276" y="522"/>
      <point x="248" y="542"/>
      <point x="202" y="542" type="curve" smooth="yes"/>
      <point x="184" y="542" type="line"/>
    </contour>
  </outline>
</glyph>
